<svg width="1720" height="231" viewBox="0 0 1720 231" fill="none" xmlns="http://www.w3.org/2000/svg">
<path d="M1469.78 140.174C1465.94 140.174 1462.79 138.958 1460.36 136.525C1457.93 134.092 1456.71 130.951 1456.71 127.102C1456.71 123.253 1457.93 120.107 1460.36 117.664C1462.79 115.221 1465.94 114 1469.78 114C1473.63 114 1476.79 115.221 1479.26 117.664C1481.73 120.107 1482.96 123.253 1482.96 127.102C1482.96 130.951 1481.73 134.092 1479.26 136.525C1476.79 138.958 1473.63 140.174 1469.78 140.174ZM1451.03 167.993C1449.03 167.993 1447.36 167.308 1446.02 165.937C1444.67 164.566 1444 162.908 1444 160.964V158.944C1444 156.751 1444.56 154.821 1445.69 153.155C1446.82 151.489 1448.3 150.228 1450.13 149.372C1453.57 147.827 1456.9 146.668 1460.12 145.895C1463.33 145.122 1466.55 144.736 1469.78 144.736C1473.11 144.736 1476.36 145.135 1479.54 145.932C1482.72 146.73 1486 147.877 1489.39 149.372C1491.29 150.17 1492.81 151.404 1493.95 153.074C1495.1 154.744 1495.67 156.701 1495.67 158.944V160.964C1495.67 162.908 1495 164.566 1493.64 165.937C1492.28 167.308 1490.59 167.993 1488.57 167.993H1451.03Z" fill="black"/>
<path d="M1149.02 139.843C1145.17 139.843 1142.03 138.627 1139.6 136.194C1137.16 133.761 1135.95 130.621 1135.95 126.772C1135.95 122.923 1137.16 119.777 1139.6 117.334C1142.03 114.891 1145.17 113.669 1149.02 113.669C1152.87 113.669 1156.03 114.891 1158.49 117.334C1160.96 119.777 1162.2 122.923 1162.2 126.772C1162.2 130.621 1160.96 133.761 1158.49 136.194C1156.03 138.627 1152.87 139.843 1149.02 139.843ZM1130.26 167.663C1128.27 167.663 1126.6 166.977 1125.25 165.606C1123.91 164.235 1123.23 162.577 1123.23 160.633V158.614C1123.23 156.42 1123.8 154.49 1124.93 152.824C1126.06 151.158 1127.54 149.897 1129.37 149.042C1132.81 147.496 1136.13 146.337 1139.35 145.564C1142.57 144.791 1145.79 144.405 1149.01 144.405C1152.34 144.405 1155.59 144.804 1158.77 145.602C1161.95 146.399 1165.24 147.546 1168.63 149.042C1170.52 149.839 1172.04 151.073 1173.19 152.743C1174.34 154.414 1174.91 156.37 1174.91 158.614V160.633C1174.91 162.577 1174.23 164.235 1172.87 165.606C1171.51 166.977 1169.82 167.663 1167.8 167.663H1130.26Z" fill="black"/>
<path d="M1268.67 139.843C1264.82 139.843 1261.68 138.627 1259.25 136.194C1256.82 133.761 1255.6 130.621 1255.6 126.772C1255.6 122.923 1256.82 119.777 1259.25 117.334C1261.68 114.891 1264.82 113.669 1268.67 113.669C1272.52 113.669 1275.68 114.891 1278.15 117.334C1280.62 119.777 1281.85 122.923 1281.85 126.772C1281.85 130.621 1280.62 133.761 1278.15 136.194C1275.68 138.627 1272.52 139.843 1268.67 139.843ZM1249.92 167.663C1247.92 167.663 1246.25 166.977 1244.9 165.606C1243.56 164.235 1242.89 162.577 1242.89 160.633V158.614C1242.89 156.42 1243.45 154.49 1244.58 152.824C1245.71 151.158 1247.19 149.897 1249.02 149.042C1252.46 147.496 1255.79 146.337 1259 145.564C1262.22 144.791 1265.44 144.405 1268.67 144.405C1271.99 144.405 1275.25 144.804 1278.43 145.602C1281.61 146.399 1284.89 147.546 1288.28 149.042C1290.18 149.839 1291.7 151.073 1292.84 152.743C1293.99 154.414 1294.56 156.37 1294.56 158.614V160.633C1294.56 162.577 1293.88 164.235 1292.52 165.606C1291.16 166.977 1289.48 167.663 1287.46 167.663H1249.92Z" fill="black"/>
<path d="M1208.85 139.843C1205 139.843 1201.86 138.627 1199.42 136.194C1196.99 133.761 1195.77 130.621 1195.77 126.772C1195.77 122.923 1196.99 119.777 1199.42 117.334C1201.86 114.891 1205 113.669 1208.85 113.669C1212.7 113.669 1215.85 114.891 1218.32 117.334C1220.79 119.777 1222.02 122.923 1222.02 126.772C1222.02 130.621 1220.79 133.761 1218.32 136.194C1215.85 138.627 1212.7 139.843 1208.85 139.843ZM1190.09 167.663C1188.09 167.663 1186.42 166.977 1185.08 165.606C1183.73 164.235 1183.06 162.577 1183.06 160.633V158.614C1183.06 156.42 1183.63 154.49 1184.75 152.824C1185.88 151.158 1187.36 149.897 1189.19 149.042C1192.63 147.496 1195.96 146.337 1199.18 145.564C1202.39 144.791 1205.61 144.405 1208.84 144.405C1212.17 144.405 1215.42 144.804 1218.6 145.602C1221.78 146.399 1225.06 147.546 1228.45 149.042C1230.35 149.839 1231.87 151.073 1233.02 152.743C1234.16 154.414 1234.74 156.37 1234.74 158.614V160.633C1234.74 162.577 1234.06 164.235 1232.7 165.606C1231.34 166.977 1229.65 167.663 1227.63 167.663H1190.09Z" fill="black"/>
<path d="M1148.78 203.174C1144.94 203.174 1141.79 201.958 1139.36 199.525C1136.93 197.092 1135.71 193.951 1135.71 190.102C1135.71 186.253 1136.93 183.107 1139.36 180.664C1141.79 178.221 1144.94 177 1148.78 177C1152.63 177 1155.79 178.221 1158.26 180.664C1160.73 183.107 1161.96 186.253 1161.96 190.102C1161.96 193.951 1160.73 197.092 1158.26 199.525C1155.79 201.958 1152.63 203.174 1148.78 203.174ZM1130.03 230.993C1128.03 230.993 1126.36 230.308 1125.02 228.937C1123.67 227.566 1123 225.908 1123 223.964V221.944C1123 219.751 1123.56 217.821 1124.69 216.155C1125.82 214.489 1127.3 213.228 1129.13 212.372C1132.57 210.827 1135.9 209.668 1139.12 208.895C1142.33 208.122 1145.55 207.736 1148.78 207.736C1152.11 207.736 1155.36 208.135 1158.54 208.932C1161.72 209.73 1165 210.877 1168.39 212.372C1170.29 213.17 1171.81 214.404 1172.95 216.074C1174.1 217.744 1174.67 219.701 1174.67 221.944V223.964C1174.67 225.908 1174 227.566 1172.64 228.937C1171.28 230.308 1169.59 230.993 1167.57 230.993H1130.03Z" fill="black"/>
<path d="M1268.44 203.174C1264.59 203.174 1261.45 201.958 1259.02 199.525C1256.58 197.092 1255.37 193.951 1255.37 190.102C1255.37 186.253 1256.58 183.107 1259.02 180.664C1261.45 178.221 1264.59 177 1268.44 177C1272.29 177 1275.45 178.221 1277.91 180.664C1280.38 183.107 1281.62 186.253 1281.62 190.102C1281.62 193.951 1280.38 197.092 1277.91 199.525C1275.45 201.958 1272.29 203.174 1268.44 203.174ZM1249.68 230.993C1247.69 230.993 1246.02 230.308 1244.67 228.937C1243.33 227.566 1242.65 225.908 1242.65 223.964V221.944C1242.65 219.751 1243.22 217.821 1244.35 216.155C1245.47 214.489 1246.95 213.228 1248.79 212.372C1252.23 210.827 1255.55 209.668 1258.77 208.895C1261.98 208.122 1265.21 207.736 1268.43 207.736C1271.76 207.736 1275.01 208.135 1278.19 208.932C1281.37 209.73 1284.66 210.877 1288.05 212.372C1289.94 213.17 1291.46 214.404 1292.61 216.074C1293.75 217.744 1294.33 219.701 1294.33 221.944V223.964C1294.33 225.908 1293.65 227.566 1292.29 228.937C1290.93 230.308 1289.24 230.993 1287.22 230.993H1249.68Z" fill="black"/>
<path d="M1208.61 203.174C1204.76 203.174 1201.62 201.958 1199.19 199.525C1196.76 197.092 1195.54 193.951 1195.54 190.102C1195.54 186.253 1196.76 183.107 1199.19 180.664C1201.62 178.221 1204.76 177 1208.61 177C1212.46 177 1215.62 178.221 1218.09 180.664C1220.55 183.107 1221.79 186.253 1221.79 190.102C1221.79 193.951 1220.55 197.092 1218.09 199.525C1215.62 201.958 1212.46 203.174 1208.61 203.174ZM1189.86 230.993C1187.86 230.993 1186.19 230.308 1184.84 228.937C1183.5 227.566 1182.83 225.908 1182.83 223.964V221.944C1182.83 219.751 1183.39 217.821 1184.52 216.155C1185.65 214.489 1187.13 213.228 1188.96 212.372C1192.4 210.827 1195.73 209.668 1198.94 208.895C1202.16 208.122 1205.38 207.736 1208.61 207.736C1211.93 207.736 1215.19 208.135 1218.37 208.932C1221.55 209.73 1224.83 210.877 1228.22 212.372C1230.11 213.17 1231.64 214.404 1232.78 216.074C1233.93 217.744 1234.5 219.701 1234.5 221.944V223.964C1234.5 225.908 1233.82 227.566 1232.46 228.937C1231.1 230.308 1229.41 230.993 1227.4 230.993H1189.86Z" fill="black"/>
<rect x="348" width="152" height="85" fill="#F2A9A9"/>
<rect x="523" width="152" height="85" fill="#FCD9D9"/>
<rect x="697" width="152" height="85" fill="#FFEDEB"/>
<rect x="871" width="152" height="85" fill="#F0F4E5"/>
<rect width="152" height="85" fill="#933838"/>
<rect x="174" width="152" height="85" fill="#C76767"/>
<rect x="1045" width="152" height="85" fill="#DDF3D2"/>
<rect x="1219" width="152" height="85" fill="#C5E1B7"/>
<rect x="1393.95" width="152" height="85.2522" fill="#8FAD80"/>
<rect x="1568" width="152" height="85.2522" fill="#658455"/>
<path d="M79.1374 34.5455V52H75.4471V38.0483H75.3448L71.3477 40.554V37.2812L75.6687 34.5455H79.1374Z" fill="#FDF9F9"/>
<path d="M243.856 52V49.3409L250.069 43.5881C250.598 43.0767 251.041 42.6165 251.399 42.2074C251.762 41.7983 252.038 41.3977 252.225 41.0057C252.413 40.608 252.507 40.179 252.507 39.7188C252.507 39.2074 252.39 38.767 252.157 38.3977C251.924 38.0227 251.606 37.7358 251.203 37.5369C250.799 37.3324 250.342 37.2301 249.831 37.2301C249.297 37.2301 248.831 37.3381 248.433 37.554C248.035 37.7699 247.728 38.0795 247.512 38.483C247.297 38.8864 247.189 39.3665 247.189 39.9233H243.686C243.686 38.7812 243.944 37.7898 244.461 36.9489C244.978 36.108 245.703 35.4574 246.635 34.9972C247.566 34.5369 248.64 34.3068 249.856 34.3068C251.106 34.3068 252.194 34.5284 253.12 34.9716C254.052 35.4091 254.777 36.017 255.294 36.7955C255.811 37.5739 256.069 38.4659 256.069 39.4716C256.069 40.1307 255.939 40.7812 255.677 41.4233C255.422 42.0653 254.964 42.7784 254.305 43.5625C253.646 44.3409 252.717 45.2756 251.518 46.3665L248.97 48.8636V48.983H256.299V52H243.856Z" fill="#FDF9F9"/>
<path d="M423.956 52.2386C422.684 52.2386 421.55 52.0199 420.556 51.5824C419.567 51.1392 418.786 50.5312 418.212 49.7585C417.644 48.9801 417.351 48.0824 417.334 47.0653H421.05C421.073 47.4915 421.212 47.8665 421.468 48.1903C421.729 48.5085 422.076 48.7557 422.507 48.9318C422.939 49.108 423.425 49.196 423.965 49.196C424.527 49.196 425.025 49.0966 425.456 48.8977C425.888 48.6989 426.226 48.4233 426.471 48.071C426.715 47.7187 426.837 47.3125 426.837 46.8523C426.837 46.3864 426.706 45.9744 426.445 45.6165C426.189 45.2528 425.82 44.9687 425.337 44.7642C424.86 44.5597 424.292 44.4574 423.632 44.4574H422.005V41.7472H423.632C424.189 41.7472 424.681 41.6506 425.107 41.4574C425.539 41.2642 425.874 40.9972 426.113 40.6562C426.351 40.3097 426.471 39.9062 426.471 39.446C426.471 39.0085 426.365 38.625 426.155 38.2955C425.951 37.9602 425.661 37.6989 425.286 37.5114C424.917 37.3239 424.485 37.2301 423.99 37.2301C423.49 37.2301 423.033 37.321 422.618 37.5028C422.203 37.679 421.871 37.9318 421.621 38.2614C421.371 38.5909 421.238 38.9773 421.221 39.4205H417.684C417.701 38.4148 417.988 37.5284 418.544 36.7614C419.101 35.9943 419.851 35.3949 420.794 34.9631C421.743 34.5256 422.814 34.3068 424.007 34.3068C425.212 34.3068 426.266 34.5256 427.169 34.9631C428.073 35.4006 428.775 35.9915 429.275 36.7358C429.78 37.4744 430.03 38.304 430.025 39.2244C430.03 40.2017 429.726 41.017 429.113 41.6705C428.505 42.3239 427.712 42.7386 426.735 42.9148V43.0511C428.019 43.2159 428.996 43.6619 429.667 44.3892C430.343 45.1108 430.678 46.0142 430.672 47.0994C430.678 48.0938 430.391 48.9773 429.811 49.75C429.238 50.5227 428.445 51.1307 427.434 51.5739C426.422 52.017 425.263 52.2386 423.956 52.2386Z" fill="#382E33"/>
<path d="M592.018 48.9318V46.0256L599.305 34.5455H601.81V38.5682H600.327L595.734 45.8381V45.9744H606.089V48.9318H592.018ZM600.396 52V48.0455L600.464 46.7585V34.5455H603.924V52H600.396Z" fill="#382E33"/>
<path d="M773.055 52.2386C771.851 52.2386 770.777 52.017 769.834 51.5739C768.896 51.1307 768.152 50.5199 767.601 49.7415C767.05 48.9631 766.763 48.071 766.74 47.0653H770.32C770.359 47.7415 770.643 48.2898 771.172 48.7102C771.7 49.1307 772.328 49.3409 773.055 49.3409C773.635 49.3409 774.146 49.2131 774.589 48.9574C775.038 48.696 775.388 48.3352 775.638 47.875C775.893 47.4091 776.021 46.875 776.021 46.2727C776.021 45.6591 775.891 45.1193 775.629 44.6534C775.374 44.1875 775.018 43.8239 774.564 43.5625C774.109 43.3011 773.589 43.1676 773.004 43.1619C772.493 43.1619 771.996 43.267 771.513 43.4773C771.036 43.6875 770.663 43.9744 770.396 44.3381L767.115 43.75L767.942 34.5455H778.612V37.5625H770.984L770.533 41.9347H770.635C770.942 41.5028 771.405 41.1449 772.024 40.8608C772.643 40.5767 773.337 40.4347 774.104 40.4347C775.155 40.4347 776.092 40.6818 776.916 41.1761C777.74 41.6705 778.391 42.3494 778.868 43.2131C779.345 44.071 779.581 45.0597 779.575 46.179C779.581 47.3551 779.308 48.4006 778.757 49.3153C778.212 50.2244 777.447 50.9403 776.464 51.4631C775.487 51.9801 774.351 52.2386 773.055 52.2386Z" fill="#382E33"/>
<path d="M947.192 52.2386C946.294 52.233 945.428 52.0824 944.592 51.7869C943.763 51.4915 943.018 51.0114 942.359 50.3466C941.7 49.6818 941.178 48.8011 940.791 47.7045C940.411 46.608 940.22 45.2614 940.22 43.6648C940.226 42.1989 940.393 40.8892 940.723 39.7358C941.058 38.5767 941.536 37.5937 942.155 36.7869C942.78 35.9801 943.527 35.3665 944.396 34.946C945.266 34.5199 946.24 34.3068 947.32 34.3068C948.484 34.3068 949.513 34.5341 950.405 34.9886C951.297 35.4375 952.013 36.0483 952.553 36.821C953.098 37.5938 953.428 38.4602 953.541 39.4205H949.902C949.76 38.8125 949.462 38.3352 949.007 37.9886C948.553 37.642 947.99 37.4688 947.32 37.4688C946.183 37.4688 945.32 37.9631 944.729 38.9517C944.143 39.9403 943.845 41.2841 943.834 42.983H943.953C944.214 42.4659 944.567 42.0256 945.01 41.6619C945.459 41.2926 945.967 41.0114 946.536 40.8182C947.109 40.6193 947.714 40.5199 948.351 40.5199C949.385 40.5199 950.305 40.7642 951.112 41.2528C951.919 41.7358 952.555 42.4006 953.021 43.2472C953.487 44.0937 953.72 45.0625 953.72 46.1534C953.72 47.3352 953.445 48.3864 952.893 49.3068C952.348 50.2273 951.584 50.9489 950.601 51.4716C949.624 51.9886 948.487 52.2443 947.192 52.2386ZM947.175 49.3409C947.743 49.3409 948.251 49.2045 948.7 48.9318C949.149 48.6591 949.501 48.2898 949.757 47.8239C950.013 47.358 950.141 46.8352 950.141 46.2557C950.141 45.6761 950.013 45.1562 949.757 44.696C949.507 44.2358 949.161 43.8693 948.717 43.5966C948.274 43.3239 947.768 43.1875 947.2 43.1875C946.774 43.1875 946.379 43.267 946.016 43.4261C945.658 43.5852 945.342 43.8068 945.07 44.0909C944.803 44.375 944.592 44.7045 944.439 45.0795C944.286 45.4489 944.209 45.8437 944.209 46.2642C944.209 46.8267 944.337 47.3409 944.592 47.8068C944.854 48.2727 945.206 48.6449 945.649 48.9233C946.098 49.2017 946.607 49.3409 947.175 49.3409Z" fill="#382E33"/>
<path d="M1117.97 52L1125.2 37.6818V37.5625H1116.78V34.5455H1129.02V37.6051L1121.78 52H1117.97Z" fill="#382E33"/>
<path d="M1294.99 52.2386C1293.68 52.2386 1292.51 52.0256 1291.49 51.5994C1290.47 51.1676 1289.67 50.5795 1289.09 49.8352C1288.52 49.0909 1288.23 48.2472 1288.23 47.304C1288.23 46.5767 1288.39 45.9091 1288.72 45.3011C1289.06 44.6875 1289.51 44.179 1290.08 43.7756C1290.66 43.3665 1291.3 43.1051 1292.01 42.9915V42.8722C1291.08 42.6847 1290.32 42.233 1289.74 41.517C1289.16 40.7955 1288.87 39.9574 1288.87 39.0028C1288.87 38.0994 1289.14 37.2955 1289.67 36.5909C1290.19 35.8807 1290.92 35.3239 1291.84 34.9205C1292.77 34.5114 1293.82 34.3068 1294.99 34.3068C1296.17 34.3068 1297.22 34.5114 1298.14 34.9205C1299.06 35.3295 1299.79 35.8892 1300.32 36.5994C1300.85 37.304 1301.11 38.1051 1301.12 39.0028C1301.11 39.9631 1300.82 40.8011 1300.23 41.517C1299.65 42.233 1298.9 42.6847 1297.98 42.8722V42.9915C1298.68 43.1051 1299.32 43.3665 1299.88 43.7756C1300.46 44.179 1300.91 44.6875 1301.25 45.3011C1301.59 45.9091 1301.76 46.5767 1301.77 47.304C1301.76 48.2472 1301.47 49.0909 1300.89 49.8352C1300.31 50.5795 1299.51 51.1676 1298.49 51.5994C1297.47 52.0256 1296.31 52.2386 1294.99 52.2386ZM1294.99 49.5284C1295.58 49.5284 1296.09 49.4233 1296.53 49.2131C1296.96 48.9972 1297.31 48.7017 1297.55 48.3267C1297.8 47.946 1297.92 47.5085 1297.92 47.0142C1297.92 46.5085 1297.8 46.0625 1297.54 45.6761C1297.29 45.2841 1296.94 44.9773 1296.5 44.7557C1296.06 44.5284 1295.56 44.4148 1294.99 44.4148C1294.43 44.4148 1293.93 44.5284 1293.48 44.7557C1293.04 44.9773 1292.69 45.2841 1292.44 45.6761C1292.19 46.0625 1292.06 46.5085 1292.06 47.0142C1292.06 47.5085 1292.18 47.946 1292.43 48.3267C1292.67 48.7017 1293.02 48.9972 1293.46 49.2131C1293.9 49.4233 1294.41 49.5284 1294.99 49.5284ZM1294.99 41.7301C1295.48 41.7301 1295.92 41.6307 1296.3 41.4318C1296.68 41.233 1296.98 40.9574 1297.19 40.6051C1297.41 40.2528 1297.52 39.8466 1297.52 39.3864C1297.52 38.9318 1297.41 38.5341 1297.19 38.1932C1296.98 37.8466 1296.68 37.5767 1296.31 37.3835C1295.93 37.1847 1295.49 37.0852 1294.99 37.0852C1294.5 37.0852 1294.06 37.1847 1293.68 37.3835C1293.3 37.5767 1293 37.8466 1292.79 38.1932C1292.57 38.5341 1292.47 38.9318 1292.47 39.3864C1292.47 39.8466 1292.58 40.2528 1292.79 40.6051C1293.01 40.9574 1293.31 41.233 1293.69 41.4318C1294.07 41.6307 1294.5 41.7301 1294.99 41.7301Z" fill="#382E33"/>
<path d="M1469.81 34.3068C1470.71 34.3068 1471.57 34.4574 1472.4 34.7585C1473.23 35.0597 1473.98 35.5398 1474.63 36.1989C1475.29 36.858 1475.81 37.733 1476.19 38.8239C1476.58 39.9091 1476.77 41.2415 1476.78 42.821C1476.78 44.304 1476.61 45.6278 1476.28 46.7926C1475.95 47.9517 1475.47 48.9375 1474.85 49.75C1474.23 50.5625 1473.49 51.1818 1472.61 51.608C1471.74 52.0284 1470.76 52.2386 1469.68 52.2386C1468.52 52.2386 1467.49 52.0142 1466.6 51.5653C1465.7 51.1108 1464.98 50.4943 1464.44 49.7159C1463.9 48.9318 1463.57 48.0511 1463.46 47.0739H1467.1C1467.24 47.7102 1467.54 48.2045 1467.99 48.5568C1468.45 48.9034 1469.01 49.0767 1469.68 49.0767C1470.82 49.0767 1471.68 48.5824 1472.27 47.5938C1472.86 46.5994 1473.16 45.2386 1473.17 43.5114H1473.05C1472.79 44.0227 1472.43 44.4631 1471.99 44.8324C1471.55 45.196 1471.04 45.4773 1470.46 45.6761C1469.9 45.875 1469.29 45.9744 1468.65 45.9744C1467.62 45.9744 1466.7 45.733 1465.9 45.25C1465.09 44.767 1464.45 44.1023 1463.99 43.2557C1463.52 42.4091 1463.29 41.4432 1463.29 40.358C1463.28 39.1875 1463.55 38.1449 1464.1 37.2301C1464.64 36.3153 1465.4 35.5994 1466.38 35.0824C1467.37 34.5597 1468.51 34.3011 1469.81 34.3068ZM1469.83 37.2045C1469.26 37.2045 1468.75 37.3409 1468.3 37.6136C1467.86 37.8864 1467.5 38.2528 1467.24 38.7131C1466.99 39.1733 1466.86 39.6875 1466.87 40.2557C1466.87 40.8295 1466.99 41.3466 1467.24 41.8068C1467.5 42.2614 1467.85 42.625 1468.28 42.8977C1468.73 43.1648 1469.23 43.2983 1469.8 43.2983C1470.23 43.2983 1470.62 43.2187 1470.98 43.0597C1471.35 42.9006 1471.66 42.6818 1471.93 42.4034C1472.2 42.1193 1472.42 41.7926 1472.57 41.4233C1472.72 41.054 1472.8 40.6619 1472.8 40.2472C1472.79 39.696 1472.66 39.1903 1472.41 38.7301C1472.15 38.2699 1471.8 37.9006 1471.35 37.6222C1470.9 37.3437 1470.4 37.2045 1469.83 37.2045Z" fill="#FDF9F9"/>
<path d="M1639.15 34.5455V52H1635.46V38.0483H1635.36L1631.36 40.554V37.2812L1635.68 34.5455H1639.15ZM1649.59 52.3835C1648.13 52.3778 1646.86 52.017 1645.81 51.3011C1644.76 50.5852 1643.95 49.5483 1643.38 48.1903C1642.82 46.8324 1642.54 45.1989 1642.54 43.2898C1642.54 41.3864 1642.82 39.7642 1643.39 38.4233C1643.96 37.0824 1644.77 36.0625 1645.82 35.3636C1646.87 34.6591 1648.13 34.3068 1649.59 34.3068C1651.05 34.3068 1652.31 34.6591 1653.36 35.3636C1654.42 36.0682 1655.23 37.0909 1655.8 38.4318C1656.36 39.767 1656.65 41.3864 1656.64 43.2898C1656.64 45.2045 1656.36 46.8409 1655.79 48.1989C1655.23 49.5568 1654.42 50.5937 1653.37 51.3097C1652.32 52.0256 1651.06 52.3835 1649.59 52.3835ZM1649.59 49.3239C1650.59 49.3239 1651.39 48.821 1651.99 47.8153C1652.58 46.8097 1652.88 45.3011 1652.87 43.2898C1652.87 41.9659 1652.74 40.8636 1652.46 39.983C1652.2 39.1023 1651.82 38.4403 1651.32 37.9972C1650.83 37.554 1650.26 37.3324 1649.59 37.3324C1648.6 37.3324 1647.8 37.8295 1647.21 38.8239C1646.61 39.8182 1646.31 41.3068 1646.3 43.2898C1646.3 44.6307 1646.44 45.75 1646.7 46.6477C1646.98 47.5398 1647.36 48.2102 1647.85 48.6591C1648.35 49.1023 1648.93 49.3239 1649.59 49.3239Z" fill="#FDF9F9"/>
</svg>
