<svg width="1720" height="168" viewBox="0 0 1720 168" fill="none" xmlns="http://www.w3.org/2000/svg">
<rect y="0.655762" width="326.052" height="85.2522" fill="#C76767"/>
<path d="M829.785 140.174C825.936 140.174 822.795 138.958 820.362 136.525C817.929 134.092 816.713 130.951 816.713 127.102C816.713 123.253 817.929 120.107 820.362 117.664C822.795 115.221 825.936 114 829.785 114C833.634 114 836.792 115.221 839.26 117.664C841.728 120.107 842.962 123.253 842.962 127.102C842.962 130.951 841.728 134.092 839.26 136.525C836.792 138.958 833.634 140.174 829.785 140.174ZM811.03 167.993C809.033 167.993 807.362 167.308 806.017 165.937C804.672 164.566 804 162.908 804 160.964V158.944C804 156.751 804.564 154.821 805.693 153.155C806.821 151.489 808.301 150.228 810.132 149.372C813.572 147.827 816.9 146.668 820.116 145.895C823.331 145.122 826.553 144.736 829.78 144.736C833.107 144.736 836.36 145.135 839.539 145.932C842.718 146.73 846.003 147.877 849.393 149.372C851.288 150.17 852.808 151.404 853.955 153.074C855.101 154.744 855.675 156.701 855.675 158.944V160.964C855.675 162.908 854.995 164.566 853.636 165.937C852.276 167.308 850.588 167.993 848.57 167.993H811.03Z" fill="black"/>
<path d="M889.46 140.174C885.611 140.174 882.47 138.958 880.037 136.525C877.604 134.092 876.388 130.951 876.388 127.102C876.388 123.253 877.604 120.107 880.037 117.664C882.47 115.221 885.611 114 889.46 114C893.309 114 896.467 115.221 898.935 117.664C901.403 120.107 902.637 123.253 902.637 127.102C902.637 130.951 901.403 134.092 898.935 136.525C896.467 138.958 893.309 140.174 889.46 140.174ZM870.704 167.993C868.708 167.993 867.037 167.308 865.692 165.937C864.347 164.566 863.675 162.908 863.675 160.964V158.944C863.675 156.751 864.239 154.821 865.367 153.155C866.496 151.489 867.976 150.228 869.807 149.372C873.247 147.827 876.575 146.668 879.79 145.895C883.006 145.122 886.228 144.736 889.455 144.736C892.782 144.736 896.035 145.135 899.214 145.932C902.393 146.73 905.678 147.877 909.068 149.372C910.962 150.17 912.483 151.404 913.63 153.074C914.776 154.744 915.35 156.701 915.35 158.944V160.964C915.35 162.908 914.67 164.566 913.31 165.937C911.951 167.308 910.263 167.993 908.245 167.993H870.704Z" fill="black"/>
<path d="M1556.78 140.174C1552.94 140.174 1549.79 138.958 1547.36 136.525C1544.93 134.092 1543.71 130.951 1543.71 127.102C1543.71 123.253 1544.93 120.107 1547.36 117.664C1549.79 115.221 1552.94 114 1556.78 114C1560.63 114 1563.79 115.221 1566.26 117.664C1568.73 120.107 1569.96 123.253 1569.96 127.102C1569.96 130.951 1568.73 134.092 1566.26 136.525C1563.79 138.958 1560.63 140.174 1556.78 140.174ZM1538.03 167.993C1536.03 167.993 1534.36 167.308 1533.02 165.937C1531.67 164.566 1531 162.908 1531 160.964V158.944C1531 156.751 1531.56 154.821 1532.69 153.155C1533.82 151.489 1535.3 150.228 1537.13 149.372C1540.57 147.827 1543.9 146.668 1547.12 145.895C1550.33 145.122 1553.55 144.736 1556.78 144.736C1560.11 144.736 1563.36 145.135 1566.54 145.932C1569.72 146.73 1573 147.877 1576.39 149.372C1578.29 150.17 1579.81 151.404 1580.95 153.074C1582.1 154.744 1582.67 156.701 1582.67 158.944V160.964C1582.67 162.908 1582 164.566 1580.64 165.937C1579.28 167.308 1577.59 167.993 1575.57 167.993H1538.03Z" fill="black"/>
<path d="M1297.78 140.174C1293.94 140.174 1290.79 138.958 1288.36 136.525C1285.93 134.092 1284.71 130.951 1284.71 127.102C1284.71 123.253 1285.93 120.107 1288.36 117.664C1290.79 115.221 1293.94 114 1297.78 114C1301.63 114 1304.79 115.221 1307.26 117.664C1309.73 120.107 1310.96 123.253 1310.96 127.102C1310.96 130.951 1309.73 134.092 1307.26 136.525C1304.79 138.958 1301.63 140.174 1297.78 140.174ZM1279.03 167.993C1277.03 167.993 1275.36 167.308 1274.02 165.937C1272.67 164.566 1272 162.908 1272 160.964V158.944C1272 156.751 1272.56 154.821 1273.69 153.155C1274.82 151.489 1276.3 150.228 1278.13 149.372C1281.57 147.827 1284.9 146.668 1288.12 145.895C1291.33 145.122 1294.55 144.736 1297.78 144.736C1301.11 144.736 1304.36 145.135 1307.54 145.932C1310.72 146.73 1314 147.877 1317.39 149.372C1319.29 150.17 1320.81 151.404 1321.95 153.074C1323.1 154.744 1323.67 156.701 1323.67 158.944V160.964C1323.67 162.908 1323 164.566 1321.64 165.937C1320.28 167.308 1318.59 167.993 1316.57 167.993H1279.03Z" fill="black"/>
<path d="M1117.78 140.174C1113.94 140.174 1110.79 138.958 1108.36 136.525C1105.93 134.092 1104.71 130.951 1104.71 127.102C1104.71 123.253 1105.93 120.107 1108.36 117.664C1110.79 115.221 1113.94 114 1117.78 114C1121.63 114 1124.79 115.221 1127.26 117.664C1129.73 120.107 1130.96 123.253 1130.96 127.102C1130.96 130.951 1129.73 134.092 1127.26 136.525C1124.79 138.958 1121.63 140.174 1117.78 140.174ZM1099.03 167.993C1097.03 167.993 1095.36 167.308 1094.02 165.937C1092.67 164.566 1092 162.908 1092 160.964V158.944C1092 156.751 1092.56 154.821 1093.69 153.155C1094.82 151.489 1096.3 150.228 1098.13 149.372C1101.57 147.827 1104.9 146.668 1108.12 145.895C1111.33 145.122 1114.55 144.736 1117.78 144.736C1121.11 144.736 1124.36 145.135 1127.54 145.932C1130.72 146.73 1134 147.877 1137.39 149.372C1139.29 150.17 1140.81 151.404 1141.95 153.074C1143.1 154.744 1143.67 156.701 1143.67 158.944V160.964C1143.67 162.908 1143 164.566 1141.64 165.937C1140.28 167.308 1138.59 167.993 1136.57 167.993H1099.03Z" fill="black"/>
<path d="M1237.78 140.174C1233.94 140.174 1230.79 138.958 1228.36 136.525C1225.93 134.092 1224.71 130.951 1224.71 127.102C1224.71 123.253 1225.93 120.107 1228.36 117.664C1230.79 115.221 1233.94 114 1237.78 114C1241.63 114 1244.79 115.221 1247.26 117.664C1249.73 120.107 1250.96 123.253 1250.96 127.102C1250.96 130.951 1249.73 134.092 1247.26 136.525C1244.79 138.958 1241.63 140.174 1237.78 140.174ZM1219.03 167.993C1217.03 167.993 1215.36 167.308 1214.02 165.937C1212.67 164.566 1212 162.908 1212 160.963V158.944C1212 156.751 1212.56 154.821 1213.69 153.155C1214.82 151.489 1216.3 150.228 1218.13 149.372C1221.57 147.827 1224.9 146.668 1228.12 145.895C1231.33 145.122 1234.55 144.736 1237.78 144.736C1241.11 144.736 1244.36 145.135 1247.54 145.932C1250.72 146.73 1254 147.877 1257.39 149.372C1259.29 150.17 1260.81 151.404 1261.95 153.074C1263.1 154.744 1263.67 156.701 1263.67 158.944V160.963C1263.67 162.908 1263 164.566 1261.64 165.937C1260.28 167.308 1258.59 167.993 1256.57 167.993H1219.03Z" fill="black"/>
<path d="M1177.78 140.174C1173.94 140.174 1170.79 138.958 1168.36 136.525C1165.93 134.092 1164.71 130.951 1164.71 127.102C1164.71 123.253 1165.93 120.107 1168.36 117.664C1170.79 115.221 1173.94 114 1177.78 114C1181.63 114 1184.79 115.221 1187.26 117.664C1189.73 120.107 1190.96 123.253 1190.96 127.102C1190.96 130.951 1189.73 134.092 1187.26 136.525C1184.79 138.958 1181.63 140.174 1177.78 140.174ZM1159.03 167.993C1157.03 167.993 1155.36 167.308 1154.02 165.937C1152.67 164.566 1152 162.908 1152 160.964V158.944C1152 156.751 1152.56 154.821 1153.69 153.155C1154.82 151.489 1156.3 150.228 1158.13 149.372C1161.57 147.827 1164.9 146.668 1168.12 145.895C1171.33 145.122 1174.55 144.736 1177.78 144.736C1181.11 144.736 1184.36 145.135 1187.54 145.932C1190.72 146.73 1194 147.877 1197.39 149.372C1199.29 150.17 1200.81 151.404 1201.95 153.074C1203.1 154.744 1203.67 156.701 1203.67 158.944V160.964C1203.67 162.908 1203 164.566 1201.64 165.937C1200.28 167.308 1198.59 167.993 1196.57 167.993H1159.03Z" fill="black"/>
<rect x="348.486" y="0.655762" width="326.052" height="85.2522" fill="#F2A9A9"/>
<rect x="696.974" y="0.655762" width="326.052" height="85.2522" fill="#D9D9D9"/>
<rect x="1045.46" y="0.655762" width="326.052" height="85.2522" fill="#C5E1B7"/>
<rect x="1393.95" y="0.655762" width="326.052" height="85.2522" fill="#8FAD80"/>
<path d="M74.3049 36.1606C74.2368 35.4731 73.9442 34.939 73.4271 34.5583C72.9101 34.1776 72.2084 33.9873 71.322 33.9873C70.7197 33.9873 70.2112 34.0725 69.7964 34.2429C69.3817 34.4077 69.0635 34.6378 68.8419 34.9333C68.626 35.2287 68.518 35.564 68.518 35.939C68.5067 36.2515 68.572 36.5242 68.714 36.7571C68.8618 36.9901 69.0635 37.1918 69.3192 37.3623C69.5748 37.527 69.8703 37.6719 70.2055 37.7969C70.5407 37.9162 70.8987 38.0185 71.2794 38.1037L72.8476 38.4787C73.6089 38.6492 74.3078 38.8765 74.9442 39.1606C75.5805 39.4446 76.1317 39.7941 76.5976 40.2089C77.0635 40.6236 77.4243 41.1123 77.6799 41.6748C77.9413 42.2373 78.0748 42.8821 78.0805 43.6094C78.0748 44.6776 77.8021 45.6037 77.2623 46.3878C76.7282 47.1662 75.9555 47.7714 74.9442 48.2032C73.9385 48.6293 72.7254 48.8424 71.3049 48.8424C69.8959 48.8424 68.6686 48.6265 67.6231 48.1946C66.5834 47.7628 65.7709 47.1236 65.1856 46.277C64.6061 45.4248 64.3021 44.3708 64.2737 43.1151H67.8447C67.8845 43.7003 68.0521 44.189 68.3476 44.581C68.6487 44.9674 69.0493 45.26 69.5493 45.4589C70.0549 45.652 70.626 45.7486 71.2623 45.7486C71.8873 45.7486 72.4299 45.6577 72.8902 45.4759C73.3561 45.2941 73.7169 45.0412 73.9726 44.7174C74.2282 44.3935 74.3561 44.0214 74.3561 43.6009C74.3561 43.2089 74.2396 42.8793 74.0067 42.6123C73.7794 42.3452 73.4442 42.1179 73.001 41.9304C72.5635 41.7429 72.0265 41.5725 71.3902 41.4191L69.4896 40.9418C68.018 40.5839 66.8561 40.0242 66.0038 39.2628C65.1515 38.5015 64.7282 37.4759 64.7339 36.1861C64.7282 35.1293 65.0095 34.206 65.5777 33.4162C66.1515 32.6265 66.9385 32.01 67.9385 31.5668C68.9385 31.1236 70.0748 30.902 71.3476 30.902C72.643 30.902 73.7737 31.1236 74.7396 31.5668C75.7112 32.01 76.4669 32.6265 77.0067 33.4162C77.5464 34.206 77.8248 35.1208 77.8419 36.1606H74.3049ZM86.9056 35.5043V38.2316H79.0221V35.5043H86.9056ZM80.8119 32.3679H84.4426V44.5725C84.4426 44.9077 84.4937 45.1691 84.596 45.3566C84.6983 45.5384 84.8403 45.6662 85.0221 45.7401C85.2096 45.814 85.4255 45.8509 85.6698 45.8509C85.8403 45.8509 86.0108 45.8367 86.1812 45.8083C86.3517 45.7742 86.4823 45.7486 86.5733 45.7316L87.1443 48.4333C86.9625 48.4901 86.7068 48.5554 86.3772 48.6293C86.0477 48.7089 85.6471 48.7571 85.1755 48.7742C84.3005 48.8083 83.5335 48.6918 82.8744 48.4248C82.221 48.1577 81.7125 47.7429 81.3488 47.1804C80.9852 46.6179 80.8062 45.9077 80.8119 45.0498V32.3679ZM88.7187 48.5952V35.5043H92.2386V37.7884H92.375C92.6136 36.9759 93.0142 36.3623 93.5767 35.9475C94.1392 35.527 94.7869 35.3168 95.5198 35.3168C95.7017 35.3168 95.8977 35.3282 96.1079 35.3509C96.3181 35.3736 96.5028 35.4049 96.6619 35.4446V38.6662C96.4914 38.6151 96.2556 38.5696 95.9545 38.5299C95.6534 38.4901 95.3778 38.4702 95.1278 38.4702C94.5937 38.4702 94.1164 38.5867 93.696 38.8196C93.2812 39.0469 92.9517 39.3651 92.7073 39.7742C92.4687 40.1833 92.3494 40.6549 92.3494 41.189V48.5952H88.7187ZM103.292 48.8509C101.969 48.8509 100.824 48.5696 99.8578 48.0071C98.8975 47.439 98.1561 46.6492 97.6333 45.6378C97.1106 44.6208 96.8492 43.4418 96.8492 42.1009C96.8492 40.7486 97.1106 39.5668 97.6333 38.5554C98.1561 37.5384 98.8975 36.7486 99.8578 36.1861C100.824 35.6179 101.969 35.3339 103.292 35.3339C104.616 35.3339 105.758 35.6179 106.719 36.1861C107.684 36.7486 108.429 37.5384 108.952 38.5554C109.474 39.5668 109.736 40.7486 109.736 42.1009C109.736 43.4418 109.474 44.6208 108.952 45.6378C108.429 46.6492 107.684 47.439 106.719 48.0071C105.758 48.5696 104.616 48.8509 103.292 48.8509ZM103.309 46.0384C103.912 46.0384 104.415 45.8679 104.818 45.527C105.221 45.1804 105.525 44.7089 105.73 44.1123C105.94 43.5157 106.045 42.8367 106.045 42.0753C106.045 41.314 105.94 40.635 105.73 40.0384C105.525 39.4418 105.221 38.9702 104.818 38.6236C104.415 38.277 103.912 38.1037 103.309 38.1037C102.702 38.1037 102.19 38.277 101.775 38.6236C101.366 38.9702 101.057 39.4418 100.846 40.0384C100.642 40.635 100.54 41.314 100.54 42.0753C100.54 42.8367 100.642 43.5157 100.846 44.1123C101.057 44.7089 101.366 45.1804 101.775 45.527C102.19 45.8679 102.702 46.0384 103.309 46.0384ZM115.175 41.027V48.5952H111.544V35.5043H115.005V37.814H115.158C115.448 37.0526 115.934 36.4503 116.615 36.0071C117.297 35.5583 118.124 35.3339 119.096 35.3339C120.005 35.3339 120.797 35.5327 121.473 35.9304C122.15 36.3282 122.675 36.8964 123.05 37.635C123.425 38.3679 123.613 39.2429 123.613 40.26V48.5952H119.982V40.9077C119.988 40.1066 119.783 39.4816 119.368 39.0327C118.953 38.5782 118.382 38.3509 117.655 38.3509C117.167 38.3509 116.735 38.456 116.36 38.6662C115.99 38.8765 115.701 39.1833 115.49 39.5867C115.286 39.9844 115.181 40.4645 115.175 41.027ZM131.82 53.777C130.644 53.777 129.635 53.6151 128.794 53.2912C127.959 52.9731 127.294 52.5384 126.8 51.9873C126.306 51.4361 125.985 50.8168 125.837 50.1293L129.195 49.6776C129.297 49.939 129.459 50.1833 129.681 50.4106C129.902 50.6378 130.195 50.8196 130.558 50.956C130.928 51.0981 131.377 51.1691 131.905 51.1691C132.695 51.1691 133.345 50.9759 133.857 50.5895C134.374 50.2089 134.632 49.5696 134.632 48.6719V46.277H134.479C134.32 46.6407 134.081 46.9844 133.763 47.3083C133.445 47.6321 133.036 47.8964 132.536 48.1009C132.036 48.3054 131.439 48.4077 130.746 48.4077C129.763 48.4077 128.868 48.1804 128.061 47.7259C127.26 47.2657 126.621 46.564 126.144 45.6208C125.672 44.6719 125.436 43.4731 125.436 42.0242C125.436 40.5412 125.678 39.3026 126.161 38.3083C126.644 37.314 127.286 36.5696 128.087 36.0753C128.894 35.581 129.777 35.3339 130.737 35.3339C131.47 35.3339 132.084 35.4589 132.578 35.7089C133.073 35.9532 133.47 36.26 133.772 36.6293C134.078 36.9929 134.314 37.3509 134.479 37.7032H134.615V35.5043H138.22V48.7231C138.22 49.8367 137.948 50.7685 137.402 51.5185C136.857 52.2685 136.101 52.831 135.135 53.206C134.175 53.5867 133.07 53.777 131.82 53.777ZM131.897 45.6804C132.482 45.6804 132.976 45.5356 133.379 45.2458C133.789 44.9503 134.101 44.5299 134.317 43.9844C134.539 43.4333 134.649 42.7742 134.649 42.0071C134.649 41.2401 134.541 40.5753 134.325 40.0128C134.11 39.4446 133.797 39.0043 133.388 38.6918C132.979 38.3793 132.482 38.2231 131.897 38.2231C131.3 38.2231 130.797 38.385 130.388 38.7089C129.979 39.027 129.669 39.4702 129.459 40.0384C129.249 40.6066 129.144 41.2628 129.144 42.0071C129.144 42.7628 129.249 43.4162 129.459 43.9674C129.675 44.5128 129.985 44.9361 130.388 45.2373C130.797 45.5327 131.3 45.6804 131.897 45.6804ZM144.188 31.1407V48.5952H140.558V31.1407H144.188ZM148.786 53.5043C148.326 53.5043 147.894 53.4674 147.491 53.3935C147.093 53.3253 146.763 53.2373 146.502 53.1293L147.32 50.4191C147.746 50.5498 148.13 50.6208 148.471 50.6321C148.817 50.6435 149.116 50.564 149.366 50.3935C149.621 50.2231 149.829 49.9333 149.988 49.5242L150.201 48.9702L145.505 35.5043H149.323L152.033 45.1179H152.17L154.905 35.5043H158.749L153.661 50.01C153.417 50.7145 153.084 51.3282 152.664 51.8509C152.249 52.3793 151.724 52.7856 151.087 53.0696C150.451 53.3594 149.684 53.5043 148.786 53.5043ZM171.314 48.5952H165.126V31.1407H171.365C173.12 31.1407 174.632 31.4901 175.899 32.189C177.166 32.8821 178.14 33.8793 178.822 35.1804C179.51 36.4816 179.853 38.0384 179.853 39.8509C179.853 41.6691 179.51 43.2316 178.822 44.5384C178.14 45.8452 177.16 46.8481 175.882 47.5469C174.609 48.2458 173.086 48.5952 171.314 48.5952ZM168.816 45.4333H171.16C172.251 45.4333 173.169 45.2401 173.913 44.8537C174.663 44.4617 175.225 43.8566 175.6 43.0384C175.981 42.2145 176.171 41.152 176.171 39.8509C176.171 38.5611 175.981 37.5071 175.6 36.689C175.225 35.8708 174.666 35.2685 173.921 34.8821C173.177 34.4958 172.26 34.3026 171.169 34.3026H168.816V45.4333ZM181.967 48.5952V35.5043H185.597V48.5952H181.967ZM183.791 33.8168C183.251 33.8168 182.788 33.6378 182.401 33.2799C182.021 32.9162 181.83 32.4816 181.83 31.9759C181.83 31.4759 182.021 31.0469 182.401 30.689C182.788 30.3253 183.251 30.1435 183.791 30.1435C184.33 30.1435 184.791 30.3253 185.171 30.689C185.558 31.0469 185.751 31.4759 185.751 31.9759C185.751 32.4816 185.558 32.9162 185.171 33.2799C184.791 33.6378 184.33 33.8168 183.791 33.8168ZM198.846 39.2373L195.522 39.4418C195.465 39.1577 195.343 38.902 195.156 38.6748C194.968 38.4418 194.721 38.2571 194.414 38.1208C194.113 37.9787 193.752 37.9077 193.332 37.9077C192.769 37.9077 192.295 38.027 191.908 38.2657C191.522 38.4986 191.329 38.8111 191.329 39.2032C191.329 39.5157 191.454 39.7799 191.704 39.9958C191.954 40.2117 192.383 40.385 192.991 40.5157L195.36 40.9929C196.633 41.2543 197.582 41.6748 198.207 42.2543C198.832 42.8339 199.144 43.5952 199.144 44.5384C199.144 45.3964 198.891 46.1492 198.386 46.7969C197.886 47.4446 197.198 47.9503 196.323 48.314C195.454 48.6719 194.451 48.8509 193.315 48.8509C191.582 48.8509 190.201 48.4901 189.173 47.7685C188.15 47.0412 187.55 46.0526 187.374 44.8026L190.945 44.6151C191.053 45.1435 191.315 45.5469 191.729 45.8253C192.144 46.0981 192.675 46.2344 193.323 46.2344C193.96 46.2344 194.471 46.1123 194.857 45.8679C195.249 45.6179 195.448 45.2969 195.454 44.9049C195.448 44.5753 195.309 44.3054 195.036 44.0952C194.763 43.8793 194.343 43.7145 193.775 43.6009L191.508 43.1492C190.229 42.8935 189.278 42.4503 188.653 41.8196C188.033 41.189 187.724 40.385 187.724 39.4077C187.724 38.5668 187.951 37.8424 188.406 37.2344C188.866 36.6265 189.511 36.1577 190.34 35.8282C191.175 35.4986 192.153 35.3339 193.272 35.3339C194.925 35.3339 196.227 35.6833 197.175 36.3821C198.13 37.081 198.687 38.0327 198.846 39.2373ZM204.611 48.8424C203.776 48.8424 203.032 48.6975 202.378 48.4077C201.725 48.1123 201.208 47.6776 200.827 47.1037C200.452 46.5242 200.265 45.8026 200.265 44.939C200.265 44.2117 200.398 43.6009 200.665 43.1066C200.932 42.6123 201.296 42.2145 201.756 41.9134C202.216 41.6123 202.739 41.385 203.324 41.2316C203.915 41.0782 204.535 40.9702 205.182 40.9077C205.944 40.8282 206.557 40.7543 207.023 40.6861C207.489 40.6123 207.827 40.5043 208.037 40.3623C208.248 40.2202 208.353 40.01 208.353 39.7316V39.6804C208.353 39.1407 208.182 38.7231 207.841 38.4276C207.506 38.1321 207.029 37.9844 206.41 37.9844C205.756 37.9844 205.236 38.1293 204.85 38.4191C204.464 38.7032 204.208 39.0611 204.083 39.4929L200.725 39.2202C200.895 38.4248 201.231 37.7373 201.731 37.1577C202.231 36.5725 202.876 36.1236 203.665 35.8111C204.461 35.4929 205.381 35.3339 206.427 35.3339C207.154 35.3339 207.85 35.4191 208.515 35.5895C209.185 35.76 209.779 36.0242 210.296 36.3821C210.819 36.7401 211.231 37.2003 211.532 37.7628C211.833 38.3196 211.984 38.9873 211.984 39.7657V48.5952H208.54V46.7799H208.438C208.228 47.189 207.947 47.5498 207.594 47.8623C207.242 48.1691 206.819 48.4106 206.324 48.5867C205.83 48.7571 205.259 48.8424 204.611 48.8424ZM205.651 46.3367C206.185 46.3367 206.657 46.2316 207.066 46.0214C207.475 45.8054 207.796 45.5157 208.029 45.152C208.262 44.7884 208.378 44.3765 208.378 43.9162V42.527C208.265 42.6009 208.109 42.6691 207.91 42.7316C207.716 42.7884 207.498 42.8424 207.253 42.8935C207.009 42.939 206.765 42.9816 206.52 43.0214C206.276 43.0554 206.055 43.0867 205.856 43.1151C205.43 43.1776 205.057 43.277 204.739 43.4134C204.421 43.5498 204.174 43.7344 203.998 43.9674C203.822 44.1946 203.734 44.4787 203.734 44.8196C203.734 45.314 203.912 45.6918 204.27 45.9532C204.634 46.2089 205.094 46.3367 205.651 46.3367ZM220.146 53.777C218.97 53.777 217.961 53.6151 217.12 53.2912C216.285 52.9731 215.62 52.5384 215.126 51.9873C214.632 51.4361 214.311 50.8168 214.163 50.1293L217.521 49.6776C217.623 49.939 217.785 50.1833 218.007 50.4106C218.228 50.6378 218.521 50.8196 218.885 50.956C219.254 51.0981 219.703 51.1691 220.231 51.1691C221.021 51.1691 221.672 50.9759 222.183 50.5895C222.7 50.2089 222.958 49.5696 222.958 48.6719V46.277H222.805C222.646 46.6407 222.407 46.9844 222.089 47.3083C221.771 47.6321 221.362 47.8964 220.862 48.1009C220.362 48.3054 219.765 48.4077 219.072 48.4077C218.089 48.4077 217.194 48.1804 216.387 47.7259C215.586 47.2657 214.947 46.564 214.47 45.6208C213.998 44.6719 213.762 43.4731 213.762 42.0242C213.762 40.5412 214.004 39.3026 214.487 38.3083C214.97 37.314 215.612 36.5696 216.413 36.0753C217.22 35.581 218.103 35.3339 219.064 35.3339C219.797 35.3339 220.41 35.4589 220.905 35.7089C221.399 35.9532 221.797 36.26 222.098 36.6293C222.405 36.9929 222.64 37.3509 222.805 37.7032H222.941V35.5043H226.547V48.7231C226.547 49.8367 226.274 50.7685 225.728 51.5185C225.183 52.2685 224.427 52.831 223.461 53.206C222.501 53.5867 221.396 53.777 220.146 53.777ZM220.223 45.6804C220.808 45.6804 221.302 45.5356 221.706 45.2458C222.115 44.9503 222.427 44.5299 222.643 43.9844C222.865 43.4333 222.976 42.7742 222.976 42.0071C222.976 41.2401 222.868 40.5753 222.652 40.0128C222.436 39.4446 222.123 39.0043 221.714 38.6918C221.305 38.3793 220.808 38.2231 220.223 38.2231C219.626 38.2231 219.123 38.385 218.714 38.7089C218.305 39.027 217.995 39.4702 217.785 40.0384C217.575 40.6066 217.47 41.2628 217.47 42.0071C217.47 42.7628 217.575 43.4162 217.785 43.9674C218.001 44.5128 218.311 44.9361 218.714 45.2373C219.123 45.5327 219.626 45.6804 220.223 45.6804ZM228.884 48.5952V35.5043H232.404V37.7884H232.54C232.779 36.9759 233.179 36.3623 233.742 35.9475C234.304 35.527 234.952 35.3168 235.685 35.3168C235.867 35.3168 236.063 35.3282 236.273 35.3509C236.483 35.3736 236.668 35.4049 236.827 35.4446V38.6662C236.656 38.6151 236.421 38.5696 236.12 38.5299C235.818 38.4901 235.543 38.4702 235.293 38.4702C234.759 38.4702 234.281 38.5867 233.861 38.8196C233.446 39.0469 233.117 39.3651 232.872 39.7742C232.634 40.1833 232.514 40.6549 232.514 41.189V48.5952H228.884ZM243.509 48.8509C242.162 48.8509 241.003 48.5782 240.031 48.0327C239.065 47.4816 238.321 46.7032 237.798 45.6975C237.276 44.6861 237.014 43.4901 237.014 42.1094C237.014 40.7628 237.276 39.581 237.798 38.564C238.321 37.5469 239.057 36.7543 240.006 36.1861C240.96 35.6179 242.08 35.3339 243.364 35.3339C244.227 35.3339 245.031 35.4731 245.776 35.7515C246.526 36.0242 247.179 36.4361 247.736 36.9873C248.298 37.5384 248.736 38.2316 249.048 39.0668C249.361 39.8964 249.517 40.8679 249.517 41.9816V42.9787H238.463V40.7287H246.1C246.1 40.206 245.986 39.7429 245.759 39.3395C245.531 38.9361 245.216 38.6208 244.813 38.3935C244.415 38.1606 243.952 38.0441 243.423 38.0441C242.872 38.0441 242.384 38.1719 241.957 38.4276C241.537 38.6776 241.207 39.0157 240.969 39.4418C240.73 39.8623 240.608 40.331 240.602 40.8481V42.9873C240.602 43.635 240.722 44.1946 240.96 44.6662C241.205 45.1378 241.548 45.5015 241.992 45.7571C242.435 46.0128 242.96 46.1407 243.568 46.1407C243.972 46.1407 244.341 46.0839 244.676 45.9702C245.011 45.8566 245.298 45.6861 245.537 45.4589C245.776 45.2316 245.957 44.9532 246.082 44.6236L249.44 44.8452C249.27 45.652 248.921 46.3566 248.392 46.9589C247.869 47.5554 247.193 48.0214 246.364 48.3566C245.54 48.6861 244.588 48.8509 243.509 48.8509ZM257.3 48.8509C255.954 48.8509 254.795 48.5782 253.823 48.0327C252.857 47.4816 252.113 46.7032 251.59 45.6975C251.067 44.6861 250.806 43.4901 250.806 42.1094C250.806 40.7628 251.067 39.581 251.59 38.564C252.113 37.5469 252.849 36.7543 253.798 36.1861C254.752 35.6179 255.871 35.3339 257.155 35.3339C258.019 35.3339 258.823 35.4731 259.567 35.7515C260.317 36.0242 260.971 36.4361 261.528 36.9873C262.09 37.5384 262.528 38.2316 262.84 39.0668C263.153 39.8964 263.309 40.8679 263.309 41.9816V42.9787H252.255V40.7287H259.891C259.891 40.206 259.778 39.7429 259.55 39.3395C259.323 38.9361 259.008 38.6208 258.604 38.3935C258.207 38.1606 257.744 38.0441 257.215 38.0441C256.664 38.0441 256.175 38.1719 255.749 38.4276C255.329 38.6776 254.999 39.0157 254.761 39.4418C254.522 39.8623 254.4 40.331 254.394 40.8481V42.9873C254.394 43.635 254.513 44.1946 254.752 44.6662C254.996 45.1378 255.34 45.5015 255.783 45.7571C256.226 46.0128 256.752 46.1407 257.36 46.1407C257.763 46.1407 258.133 46.0839 258.468 45.9702C258.803 45.8566 259.09 45.6861 259.329 45.4589C259.567 45.2316 259.749 44.9532 259.874 44.6236L263.232 44.8452C263.062 45.652 262.712 46.3566 262.184 46.9589C261.661 47.5554 260.985 48.0214 260.155 48.3566C259.332 48.6861 258.38 48.8509 257.3 48.8509Z" fill="#382E33"/>
<path d="M469.658 48.5952H463.47V31.1407H469.709C471.465 31.1407 472.976 31.4901 474.243 32.189C475.51 32.8821 476.485 33.8793 477.166 35.1804C477.854 36.4816 478.198 38.0384 478.198 39.8509C478.198 41.6691 477.854 43.2316 477.166 44.5384C476.485 45.8452 475.504 46.8481 474.226 47.5469C472.953 48.2458 471.431 48.5952 469.658 48.5952ZM467.161 45.4333H469.504C470.595 45.4333 471.513 45.2401 472.257 44.8537C473.007 44.4617 473.57 43.8566 473.945 43.0384C474.325 42.2145 474.516 41.152 474.516 39.8509C474.516 38.5611 474.325 37.5071 473.945 36.689C473.57 35.8708 473.01 35.2685 472.266 34.8821C471.521 34.4958 470.604 34.3026 469.513 34.3026H467.161V45.4333ZM480.311 48.5952V35.5043H483.942V48.5952H480.311ZM482.135 33.8168C481.595 33.8168 481.132 33.6378 480.746 33.2799C480.365 32.9162 480.175 32.4816 480.175 31.9759C480.175 31.4759 480.365 31.0469 480.746 30.689C481.132 30.3253 481.595 30.1435 482.135 30.1435C482.675 30.1435 483.135 30.3253 483.516 30.689C483.902 31.0469 484.095 31.4759 484.095 31.9759C484.095 32.4816 483.902 32.9162 483.516 33.2799C483.135 33.6378 482.675 33.8168 482.135 33.8168ZM497.19 39.2373L493.866 39.4418C493.81 39.1577 493.687 38.902 493.5 38.6748C493.312 38.4418 493.065 38.2571 492.758 38.1208C492.457 37.9787 492.096 37.9077 491.676 37.9077C491.114 37.9077 490.639 38.027 490.253 38.2657C489.866 38.4986 489.673 38.8111 489.673 39.2032C489.673 39.5157 489.798 39.7799 490.048 39.9958C490.298 40.2117 490.727 40.385 491.335 40.5157L493.704 40.9929C494.977 41.2543 495.926 41.6748 496.551 42.2543C497.176 42.8339 497.489 43.5952 497.489 44.5384C497.489 45.3964 497.236 46.1492 496.73 46.7969C496.23 47.4446 495.543 47.9503 494.668 48.314C493.798 48.6719 492.795 48.8509 491.659 48.8509C489.926 48.8509 488.545 48.4901 487.517 47.7685C486.494 47.0412 485.895 46.0526 485.719 44.8026L489.29 44.6151C489.398 45.1435 489.659 45.5469 490.074 45.8253C490.489 46.0981 491.02 46.2344 491.668 46.2344C492.304 46.2344 492.815 46.1123 493.202 45.8679C493.594 45.6179 493.793 45.2969 493.798 44.9049C493.793 44.5753 493.653 44.3054 493.381 44.0952C493.108 43.8793 492.687 43.7145 492.119 43.6009L489.852 43.1492C488.574 42.8935 487.622 42.4503 486.997 41.8196C486.378 41.189 486.068 40.385 486.068 39.4077C486.068 38.5668 486.295 37.8424 486.75 37.2344C487.21 36.6265 487.855 36.1577 488.685 35.8282C489.52 35.4986 490.497 35.3339 491.616 35.3339C493.27 35.3339 494.571 35.6833 495.52 36.3821C496.474 37.081 497.031 38.0327 497.19 39.2373ZM502.956 48.8424C502.12 48.8424 501.376 48.6975 500.723 48.4077C500.069 48.1123 499.552 47.6776 499.172 47.1037C498.797 46.5242 498.609 45.8026 498.609 44.939C498.609 44.2117 498.743 43.6009 499.01 43.1066C499.277 42.6123 499.64 42.2145 500.101 41.9134C500.561 41.6123 501.084 41.385 501.669 41.2316C502.26 41.0782 502.879 40.9702 503.527 40.9077C504.288 40.8282 504.902 40.7543 505.368 40.6861C505.834 40.6123 506.172 40.5043 506.382 40.3623C506.592 40.2202 506.697 40.01 506.697 39.7316V39.6804C506.697 39.1407 506.527 38.7231 506.186 38.4276C505.851 38.1321 505.373 37.9844 504.754 37.9844C504.101 37.9844 503.581 38.1293 503.194 38.4191C502.808 38.7032 502.552 39.0611 502.427 39.4929L499.069 39.2202C499.24 38.4248 499.575 37.7373 500.075 37.1577C500.575 36.5725 501.22 36.1236 502.01 35.8111C502.805 35.4929 503.726 35.3339 504.771 35.3339C505.498 35.3339 506.194 35.4191 506.859 35.5895C507.53 35.76 508.123 36.0242 508.64 36.3821C509.163 36.7401 509.575 37.2003 509.876 37.7628C510.177 38.3196 510.328 38.9873 510.328 39.7657V48.5952H506.885V46.7799H506.782C506.572 47.189 506.291 47.5498 505.939 47.8623C505.586 48.1691 505.163 48.4106 504.669 48.5867C504.174 48.7571 503.603 48.8424 502.956 48.8424ZM503.995 46.3367C504.53 46.3367 505.001 46.2316 505.41 46.0214C505.819 45.8054 506.14 45.5157 506.373 45.152C506.606 44.7884 506.723 44.3765 506.723 43.9162V42.527C506.609 42.6009 506.453 42.6691 506.254 42.7316C506.061 42.7884 505.842 42.8424 505.598 42.8935C505.353 42.939 505.109 42.9816 504.865 43.0214C504.62 43.0554 504.399 43.0867 504.2 43.1151C503.774 43.1776 503.402 43.277 503.084 43.4134C502.765 43.5498 502.518 43.7344 502.342 43.9674C502.166 44.1946 502.078 44.4787 502.078 44.8196C502.078 45.314 502.257 45.6918 502.615 45.9532C502.978 46.2089 503.439 46.3367 503.995 46.3367ZM518.49 53.777C517.314 53.777 516.306 53.6151 515.465 53.2912C514.63 52.9731 513.965 52.5384 513.47 51.9873C512.976 51.4361 512.655 50.8168 512.507 50.1293L515.865 49.6776C515.968 49.939 516.13 50.1833 516.351 50.4106C516.573 50.6378 516.865 50.8196 517.229 50.956C517.598 51.0981 518.047 51.1691 518.576 51.1691C519.365 51.1691 520.016 50.9759 520.527 50.5895C521.044 50.2089 521.303 49.5696 521.303 48.6719V46.277H521.149C520.99 46.6407 520.752 46.9844 520.434 47.3083C520.115 47.6321 519.706 47.8964 519.206 48.1009C518.706 48.3054 518.11 48.4077 517.416 48.4077C516.434 48.4077 515.539 48.1804 514.732 47.7259C513.931 47.2657 513.291 46.564 512.814 45.6208C512.343 44.6719 512.107 43.4731 512.107 42.0242C512.107 40.5412 512.348 39.3026 512.831 38.3083C513.314 37.314 513.956 36.5696 514.757 36.0753C515.564 35.581 516.448 35.3339 517.408 35.3339C518.141 35.3339 518.755 35.4589 519.249 35.7089C519.743 35.9532 520.141 36.26 520.442 36.6293C520.749 36.9929 520.985 37.3509 521.149 37.7032H521.286V35.5043H524.891V48.7231C524.891 49.8367 524.618 50.7685 524.073 51.5185C523.527 52.2685 522.772 52.831 521.806 53.206C520.845 53.5867 519.74 53.777 518.49 53.777ZM518.567 45.6804C519.152 45.6804 519.647 45.5356 520.05 45.2458C520.459 44.9503 520.772 44.5299 520.988 43.9844C521.209 43.4333 521.32 42.7742 521.32 42.0071C521.32 41.2401 521.212 40.5753 520.996 40.0128C520.78 39.4446 520.468 39.0043 520.059 38.6918C519.649 38.3793 519.152 38.2231 518.567 38.2231C517.97 38.2231 517.468 38.385 517.059 38.7089C516.649 39.027 516.34 39.4702 516.13 40.0384C515.919 40.6066 515.814 41.2628 515.814 42.0071C515.814 42.7628 515.919 43.4162 516.13 43.9674C516.345 44.5128 516.655 44.9361 517.059 45.2373C517.468 45.5327 517.97 45.6804 518.567 45.6804ZM527.228 48.5952V35.5043H530.748V37.7884H530.884C531.123 36.9759 531.524 36.3623 532.086 35.9475C532.649 35.527 533.296 35.3168 534.029 35.3168C534.211 35.3168 534.407 35.3282 534.617 35.3509C534.828 35.3736 535.012 35.4049 535.171 35.4446V38.6662C535.001 38.6151 534.765 38.5696 534.464 38.5299C534.163 38.4901 533.887 38.4702 533.637 38.4702C533.103 38.4702 532.626 38.5867 532.205 38.8196C531.791 39.0469 531.461 39.3651 531.217 39.7742C530.978 40.1833 530.859 40.6549 530.859 41.189V48.5952H527.228ZM541.853 48.8509C540.506 48.8509 539.347 48.5782 538.376 48.0327C537.41 47.4816 536.665 46.7032 536.143 45.6975C535.62 44.6861 535.359 43.4901 535.359 42.1094C535.359 40.7628 535.62 39.581 536.143 38.564C536.665 37.5469 537.401 36.7543 538.35 36.1861C539.305 35.6179 540.424 35.3339 541.708 35.3339C542.572 35.3339 543.376 35.4731 544.12 35.7515C544.87 36.0242 545.523 36.4361 546.08 36.9873C546.643 37.5384 547.08 38.2316 547.393 39.0668C547.705 39.8964 547.861 40.8679 547.861 41.9816V42.9787H536.808V40.7287H544.444C544.444 40.206 544.33 39.7429 544.103 39.3395C543.876 38.9361 543.56 38.6208 543.157 38.3935C542.759 38.1606 542.296 38.0441 541.768 38.0441C541.217 38.0441 540.728 38.1719 540.302 38.4276C539.881 38.6776 539.552 39.0157 539.313 39.4418C539.075 39.8623 538.952 40.331 538.947 40.8481V42.9873C538.947 43.635 539.066 44.1946 539.305 44.6662C539.549 45.1378 539.893 45.5015 540.336 45.7571C540.779 46.0128 541.305 46.1407 541.913 46.1407C542.316 46.1407 542.685 46.0839 543.021 45.9702C543.356 45.8566 543.643 45.6861 543.881 45.4589C544.12 45.2316 544.302 44.9532 544.427 44.6236L547.785 44.8452C547.614 45.652 547.265 46.3566 546.736 46.9589C546.214 47.5554 545.538 48.0214 544.708 48.3566C543.884 48.6861 542.933 48.8509 541.853 48.8509ZM555.645 48.8509C554.298 48.8509 553.139 48.5782 552.167 48.0327C551.202 47.4816 550.457 46.7032 549.934 45.6975C549.412 44.6861 549.15 43.4901 549.15 42.1094C549.15 40.7628 549.412 39.581 549.934 38.564C550.457 37.5469 551.193 36.7543 552.142 36.1861C553.096 35.6179 554.216 35.3339 555.5 35.3339C556.363 35.3339 557.167 35.4731 557.912 35.7515C558.662 36.0242 559.315 36.4361 559.872 36.9873C560.434 37.5384 560.872 38.2316 561.184 39.0668C561.497 39.8964 561.653 40.8679 561.653 41.9816V42.9787H550.599V40.7287H558.236C558.236 40.206 558.122 39.7429 557.895 39.3395C557.667 38.9361 557.352 38.6208 556.949 38.3935C556.551 38.1606 556.088 38.0441 555.559 38.0441C555.008 38.0441 554.52 38.1719 554.094 38.4276C553.673 38.6776 553.344 39.0157 553.105 39.4418C552.866 39.8623 552.744 40.331 552.738 40.8481V42.9873C552.738 43.635 552.858 44.1946 553.096 44.6662C553.341 45.1378 553.684 45.5015 554.128 45.7571C554.571 46.0128 555.096 46.1407 555.704 46.1407C556.108 46.1407 556.477 46.0839 556.812 45.9702C557.148 45.8566 557.434 45.6861 557.673 45.4589C557.912 45.2316 558.094 44.9532 558.219 44.6236L561.577 44.8452C561.406 45.652 561.057 46.3566 560.528 46.9589C560.006 47.5554 559.329 48.0214 558.5 48.3566C557.676 48.6861 556.724 48.8509 555.645 48.8509Z" fill="#382E33"/>
<path d="M835.443 31.1407V48.5952H832.256L824.662 37.6094H824.534V48.5952H820.844V31.1407H824.082L831.617 42.1179H831.77V31.1407H835.443ZM843.838 48.8509C842.491 48.8509 841.332 48.5782 840.361 48.0327C839.395 47.4816 838.65 46.7032 838.128 45.6975C837.605 44.6861 837.344 43.4901 837.344 42.1094C837.344 40.7628 837.605 39.581 838.128 38.564C838.65 37.5469 839.386 36.7543 840.335 36.1861C841.29 35.6179 842.409 35.3339 843.693 35.3339C844.557 35.3339 845.361 35.4731 846.105 35.7515C846.855 36.0242 847.508 36.4361 848.065 36.9873C848.628 37.5384 849.065 38.2316 849.378 39.0668C849.69 39.8964 849.846 40.8679 849.846 41.9816V42.9787H838.792V40.7287H846.429C846.429 40.206 846.315 39.7429 846.088 39.3395C845.861 38.9361 845.545 38.6208 845.142 38.3935C844.744 38.1606 844.281 38.0441 843.753 38.0441C843.202 38.0441 842.713 38.1719 842.287 38.4276C841.866 38.6776 841.537 39.0157 841.298 39.4418C841.06 39.8623 840.937 40.331 840.932 40.8481V42.9873C840.932 43.635 841.051 44.1946 841.29 44.6662C841.534 45.1378 841.878 45.5015 842.321 45.7571C842.764 46.0128 843.29 46.1407 843.898 46.1407C844.301 46.1407 844.67 46.0839 845.006 45.9702C845.341 45.8566 845.628 45.6861 845.866 45.4589C846.105 45.2316 846.287 44.9532 846.412 44.6236L849.77 44.8452C849.599 45.652 849.25 46.3566 848.721 46.9589C848.199 47.5554 847.523 48.0214 846.693 48.3566C845.869 48.6861 844.917 48.8509 843.838 48.8509ZM860.059 43.0214V35.5043H863.689V48.5952H860.204V46.2174H860.067C859.772 46.9844 859.28 47.6009 858.593 48.0668C857.911 48.5327 857.079 48.7657 856.096 48.7657C855.221 48.7657 854.451 48.5668 853.786 48.1691C853.121 47.7714 852.601 47.206 852.226 46.4731C851.857 45.7401 851.669 44.8623 851.664 43.8395V35.5043H855.294V43.1918C855.3 43.9645 855.508 44.5753 855.917 45.0242C856.326 45.4731 856.874 45.6975 857.562 45.6975C857.999 45.6975 858.408 45.5981 858.789 45.3992C859.169 45.1946 859.476 44.8935 859.709 44.4958C859.948 44.0981 860.064 43.6066 860.059 43.0214ZM873.005 35.5043V38.2316H865.121V35.5043H873.005ZM866.911 32.3679H870.541V44.5725C870.541 44.9077 870.593 45.1691 870.695 45.3566C870.797 45.5384 870.939 45.6662 871.121 45.7401C871.309 45.814 871.524 45.8509 871.769 45.8509C871.939 45.8509 872.11 45.8367 872.28 45.8083C872.451 45.7742 872.581 45.7486 872.672 45.7316L873.243 48.4333C873.061 48.4901 872.806 48.5554 872.476 48.6293C872.147 48.7089 871.746 48.7571 871.274 48.7742C870.399 48.8083 869.632 48.6918 868.973 48.4248C868.32 48.1577 867.811 47.7429 867.448 47.1804C867.084 46.6179 866.905 45.9077 866.911 45.0498V32.3679ZM874.818 48.5952V35.5043H878.337V37.7884H878.474C878.712 36.9759 879.113 36.3623 879.676 35.9475C880.238 35.527 880.886 35.3168 881.619 35.3168C881.801 35.3168 881.997 35.3282 882.207 35.3509C882.417 35.3736 882.602 35.4049 882.761 35.4446V38.6662C882.59 38.6151 882.355 38.5696 882.053 38.5299C881.752 38.4901 881.477 38.4702 881.227 38.4702C880.693 38.4702 880.215 38.5867 879.795 38.8196C879.38 39.0469 879.051 39.3651 878.806 39.7742C878.568 40.1833 878.448 40.6549 878.448 41.189V48.5952H874.818ZM887.444 48.8424C886.609 48.8424 885.864 48.6975 885.211 48.4077C884.557 48.1123 884.04 47.6776 883.66 47.1037C883.285 46.5242 883.097 45.8026 883.097 44.939C883.097 44.2117 883.231 43.6009 883.498 43.1066C883.765 42.6123 884.129 42.2145 884.589 41.9134C885.049 41.6123 885.572 41.385 886.157 41.2316C886.748 41.0782 887.367 40.9702 888.015 40.9077C888.776 40.8282 889.39 40.7543 889.856 40.6861C890.322 40.6123 890.66 40.5043 890.87 40.3623C891.08 40.2202 891.185 40.01 891.185 39.7316V39.6804C891.185 39.1407 891.015 38.7231 890.674 38.4276C890.339 38.1321 889.861 37.9844 889.242 37.9844C888.589 37.9844 888.069 38.1293 887.682 38.4191C887.296 38.7032 887.04 39.0611 886.915 39.4929L883.557 39.2202C883.728 38.4248 884.063 37.7373 884.563 37.1577C885.063 36.5725 885.708 36.1236 886.498 35.8111C887.293 35.4929 888.214 35.3339 889.259 35.3339C889.986 35.3339 890.682 35.4191 891.347 35.5895C892.018 35.76 892.611 36.0242 893.129 36.3821C893.651 36.7401 894.063 37.2003 894.364 37.7628C894.665 38.3196 894.816 38.9873 894.816 39.7657V48.5952H891.373V46.7799H891.271C891.06 47.189 890.779 47.5498 890.427 47.8623C890.075 48.1691 889.651 48.4106 889.157 48.5867C888.663 48.7571 888.092 48.8424 887.444 48.8424ZM888.484 46.3367C889.018 46.3367 889.489 46.2316 889.898 46.0214C890.307 45.8054 890.629 45.5157 890.861 45.152C891.094 44.7884 891.211 44.3765 891.211 43.9162V42.527C891.097 42.6009 890.941 42.6691 890.742 42.7316C890.549 42.7884 890.33 42.8424 890.086 42.8935C889.842 42.939 889.597 42.9816 889.353 43.0214C889.109 43.0554 888.887 43.0867 888.688 43.1151C888.262 43.1776 887.89 43.277 887.572 43.4134C887.254 43.5498 887.006 43.7344 886.83 43.9674C886.654 44.1946 886.566 44.4787 886.566 44.8196C886.566 45.314 886.745 45.6918 887.103 45.9532C887.467 46.2089 887.927 46.3367 888.484 46.3367ZM900.711 31.1407V48.5952H897.081V31.1407H900.711Z" fill="#382E33"/>
<path d="M1179.65 48.5952H1175.7L1181.72 31.1407H1186.48L1192.49 48.5952H1188.54L1184.17 35.1293H1184.03L1179.65 48.5952ZM1179.4 41.7344H1188.74V44.6151H1179.4V41.7344ZM1199.26 53.777C1198.09 53.777 1197.08 53.6151 1196.24 53.2912C1195.4 52.9731 1194.74 52.5384 1194.24 51.9873C1193.75 51.4361 1193.43 50.8168 1193.28 50.1293L1196.64 49.6776C1196.74 49.939 1196.9 50.1833 1197.12 50.4106C1197.35 50.6378 1197.64 50.8196 1198 50.956C1198.37 51.0981 1198.82 51.1691 1199.35 51.1691C1200.14 51.1691 1200.79 50.9759 1201.3 50.5895C1201.82 50.2089 1202.08 49.5696 1202.08 48.6719V46.277H1201.92C1201.76 46.6407 1201.53 46.9844 1201.21 47.3083C1200.89 47.6321 1200.48 47.8964 1199.98 48.1009C1199.48 48.3054 1198.88 48.4077 1198.19 48.4077C1197.21 48.4077 1196.31 48.1804 1195.51 47.7259C1194.7 47.2657 1194.06 46.564 1193.59 45.6208C1193.12 44.6719 1192.88 43.4731 1192.88 42.0242C1192.88 40.5412 1193.12 39.3026 1193.6 38.3083C1194.09 37.314 1194.73 36.5696 1195.53 36.0753C1196.34 35.581 1197.22 35.3339 1198.18 35.3339C1198.91 35.3339 1199.53 35.4589 1200.02 35.7089C1200.52 35.9532 1200.91 36.26 1201.22 36.6293C1201.52 36.9929 1201.76 37.3509 1201.92 37.7032H1202.06V35.5043H1205.66V48.7231C1205.66 49.8367 1205.39 50.7685 1204.85 51.5185C1204.3 52.2685 1203.54 52.831 1202.58 53.206C1201.62 53.5867 1200.51 53.777 1199.26 53.777ZM1199.34 45.6804C1199.93 45.6804 1200.42 45.5356 1200.82 45.2458C1201.23 44.9503 1201.54 44.5299 1201.76 43.9844C1201.98 43.4333 1202.09 42.7742 1202.09 42.0071C1202.09 41.2401 1201.99 40.5753 1201.77 40.0128C1201.55 39.4446 1201.24 39.0043 1200.83 38.6918C1200.42 38.3793 1199.93 38.2231 1199.34 38.2231C1198.74 38.2231 1198.24 38.385 1197.83 38.7089C1197.42 39.027 1197.11 39.4702 1196.9 40.0384C1196.69 40.6066 1196.59 41.2628 1196.59 42.0071C1196.59 42.7628 1196.69 43.4162 1196.9 43.9674C1197.12 44.5128 1197.43 44.9361 1197.83 45.2373C1198.24 45.5327 1198.74 45.6804 1199.34 45.6804ZM1208 48.5952V35.5043H1211.52V37.7884H1211.66C1211.9 36.9759 1212.3 36.3623 1212.86 35.9475C1213.42 35.527 1214.07 35.3168 1214.8 35.3168C1214.98 35.3168 1215.18 35.3282 1215.39 35.3509C1215.6 35.3736 1215.79 35.4049 1215.94 35.4446V38.6662C1215.77 38.6151 1215.54 38.5696 1215.24 38.5299C1214.94 38.4901 1214.66 38.4702 1214.41 38.4702C1213.88 38.4702 1213.4 38.5867 1212.98 38.8196C1212.56 39.0469 1212.23 39.3651 1211.99 39.7742C1211.75 40.1833 1211.63 40.6549 1211.63 41.189V48.5952H1208ZM1222.63 48.8509C1221.28 48.8509 1220.12 48.5782 1219.15 48.0327C1218.18 47.4816 1217.44 46.7032 1216.92 45.6975C1216.39 44.6861 1216.13 43.4901 1216.13 42.1094C1216.13 40.7628 1216.39 39.581 1216.92 38.564C1217.44 37.5469 1218.17 36.7543 1219.12 36.1861C1220.08 35.6179 1221.2 35.3339 1222.48 35.3339C1223.35 35.3339 1224.15 35.4731 1224.89 35.7515C1225.64 36.0242 1226.3 36.4361 1226.85 36.9873C1227.42 37.5384 1227.85 38.2316 1228.17 39.0668C1228.48 39.8964 1228.63 40.8679 1228.63 41.9816V42.9787H1217.58V40.7287H1225.22C1225.22 40.206 1225.1 39.7429 1224.88 39.3395C1224.65 38.9361 1224.33 38.6208 1223.93 38.3935C1223.53 38.1606 1223.07 38.0441 1222.54 38.0441C1221.99 38.0441 1221.5 38.1719 1221.08 38.4276C1220.65 38.6776 1220.33 39.0157 1220.09 39.4418C1219.85 39.8623 1219.73 40.331 1219.72 40.8481V42.9873C1219.72 43.635 1219.84 44.1946 1220.08 44.6662C1220.32 45.1378 1220.67 45.5015 1221.11 45.7571C1221.55 46.0128 1222.08 46.1407 1222.69 46.1407C1223.09 46.1407 1223.46 46.0839 1223.79 45.9702C1224.13 45.8566 1224.42 45.6861 1224.65 45.4589C1224.89 45.2316 1225.08 44.9532 1225.2 44.6236L1228.56 44.8452C1228.39 45.652 1228.04 46.3566 1227.51 46.9589C1226.99 47.5554 1226.31 48.0214 1225.48 48.3566C1224.66 48.6861 1223.71 48.8509 1222.63 48.8509ZM1236.42 48.8509C1235.07 48.8509 1233.91 48.5782 1232.94 48.0327C1231.97 47.4816 1231.23 46.7032 1230.71 45.6975C1230.19 44.6861 1229.92 43.4901 1229.92 42.1094C1229.92 40.7628 1230.19 39.581 1230.71 38.564C1231.23 37.5469 1231.97 36.7543 1232.92 36.1861C1233.87 35.6179 1234.99 35.3339 1236.27 35.3339C1237.14 35.3339 1237.94 35.4731 1238.69 35.7515C1239.44 36.0242 1240.09 36.4361 1240.65 36.9873C1241.21 37.5384 1241.65 38.2316 1241.96 39.0668C1242.27 39.8964 1242.43 40.8679 1242.43 41.9816V42.9787H1231.37V40.7287H1239.01C1239.01 40.206 1238.9 39.7429 1238.67 39.3395C1238.44 38.9361 1238.13 38.6208 1237.72 38.3935C1237.32 38.1606 1236.86 38.0441 1236.33 38.0441C1235.78 38.0441 1235.29 38.1719 1234.87 38.4276C1234.45 38.6776 1234.12 39.0157 1233.88 39.4418C1233.64 39.8623 1233.52 40.331 1233.51 40.8481V42.9873C1233.51 43.635 1233.63 44.1946 1233.87 44.6662C1234.11 45.1378 1234.46 45.5015 1234.9 45.7571C1235.34 46.0128 1235.87 46.1407 1236.48 46.1407C1236.88 46.1407 1237.25 46.0839 1237.59 45.9702C1237.92 45.8566 1238.21 45.6861 1238.45 45.4589C1238.69 45.2316 1238.87 44.9532 1238.99 44.6236L1242.35 44.8452C1242.18 45.652 1241.83 46.3566 1241.3 46.9589C1240.78 47.5554 1240.1 48.0214 1239.27 48.3566C1238.45 48.6861 1237.5 48.8509 1236.42 48.8509Z" fill="#382E33"/>
<path d="M1484.45 36.1606C1484.38 35.4731 1484.09 34.939 1483.57 34.5583C1483.06 34.1776 1482.36 33.9873 1481.47 33.9873C1480.87 33.9873 1480.36 34.0725 1479.94 34.2429C1479.53 34.4077 1479.21 34.6378 1478.99 34.9333C1478.77 35.2287 1478.67 35.564 1478.67 35.939C1478.65 36.2515 1478.72 36.5242 1478.86 36.7571C1479.01 36.9901 1479.21 37.1918 1479.47 37.3623C1479.72 37.527 1480.02 37.6719 1480.35 37.7969C1480.69 37.9162 1481.05 38.0185 1481.43 38.1037L1483 38.4787C1483.76 38.6492 1484.46 38.8765 1485.09 39.1606C1485.73 39.4446 1486.28 39.7941 1486.75 40.2089C1487.21 40.6236 1487.57 41.1123 1487.83 41.6748C1488.09 42.2373 1488.22 42.8821 1488.23 43.6094C1488.22 44.6776 1487.95 45.6037 1487.41 46.3878C1486.88 47.1662 1486.1 47.7714 1485.09 48.2032C1484.09 48.6293 1482.87 48.8424 1481.45 48.8424C1480.04 48.8424 1478.82 48.6265 1477.77 48.1946C1476.73 47.7628 1475.92 47.1236 1475.33 46.277C1474.75 45.4248 1474.45 44.3708 1474.42 43.1151H1477.99C1478.03 43.7003 1478.2 44.189 1478.5 44.581C1478.8 44.9674 1479.2 45.26 1479.7 45.4589C1480.2 45.652 1480.77 45.7486 1481.41 45.7486C1482.03 45.7486 1482.58 45.6577 1483.04 45.4759C1483.5 45.2941 1483.86 45.0412 1484.12 44.7174C1484.38 44.3935 1484.5 44.0214 1484.5 43.6009C1484.5 43.2089 1484.39 42.8793 1484.15 42.6123C1483.93 42.3452 1483.59 42.1179 1483.15 41.9304C1482.71 41.7429 1482.17 41.5725 1481.54 41.4191L1479.64 40.9418C1478.17 40.5839 1477 40.0242 1476.15 39.2628C1475.3 38.5015 1474.88 37.4759 1474.88 36.1861C1474.88 35.1293 1475.16 34.206 1475.73 33.4162C1476.3 32.6265 1477.09 32.01 1478.09 31.5668C1479.09 31.1236 1480.22 30.902 1481.5 30.902C1482.79 30.902 1483.92 31.1236 1484.89 31.5668C1485.86 32.01 1486.61 32.6265 1487.15 33.4162C1487.69 34.206 1487.97 35.1208 1487.99 36.1606H1484.45ZM1497.05 35.5043V38.2316H1489.17V35.5043H1497.05ZM1490.96 32.3679H1494.59V44.5725C1494.59 44.9077 1494.64 45.1691 1494.74 45.3566C1494.85 45.5384 1494.99 45.6662 1495.17 45.7401C1495.36 45.814 1495.57 45.8509 1495.82 45.8509C1495.99 45.8509 1496.16 45.8367 1496.33 45.8083C1496.5 45.7742 1496.63 45.7486 1496.72 45.7316L1497.29 48.4333C1497.11 48.4901 1496.85 48.5554 1496.52 48.6293C1496.2 48.7089 1495.79 48.7571 1495.32 48.7742C1494.45 48.8083 1493.68 48.6918 1493.02 48.4248C1492.37 48.1577 1491.86 47.7429 1491.5 47.1804C1491.13 46.6179 1490.95 45.9077 1490.96 45.0498V32.3679ZM1498.87 48.5952V35.5043H1502.39V37.7884H1502.52C1502.76 36.9759 1503.16 36.3623 1503.72 35.9475C1504.29 35.527 1504.93 35.3168 1505.67 35.3168C1505.85 35.3168 1506.05 35.3282 1506.26 35.3509C1506.47 35.3736 1506.65 35.4049 1506.81 35.4446V38.6662C1506.64 38.6151 1506.4 38.5696 1506.1 38.5299C1505.8 38.4901 1505.53 38.4702 1505.28 38.4702C1504.74 38.4702 1504.26 38.5867 1503.84 38.8196C1503.43 39.0469 1503.1 39.3651 1502.85 39.7742C1502.62 40.1833 1502.5 40.6549 1502.5 41.189V48.5952H1498.87ZM1513.44 48.8509C1512.12 48.8509 1510.97 48.5696 1510.01 48.0071C1509.05 47.439 1508.3 46.6492 1507.78 45.6378C1507.26 44.6208 1507 43.4418 1507 42.1009C1507 40.7486 1507.26 39.5668 1507.78 38.5554C1508.3 37.5384 1509.05 36.7486 1510.01 36.1861C1510.97 35.6179 1512.12 35.3339 1513.44 35.3339C1514.76 35.3339 1515.91 35.6179 1516.87 36.1861C1517.83 36.7486 1518.58 37.5384 1519.1 38.5554C1519.62 39.5668 1519.88 40.7486 1519.88 42.1009C1519.88 43.4418 1519.62 44.6208 1519.1 45.6378C1518.58 46.6492 1517.83 47.439 1516.87 48.0071C1515.91 48.5696 1514.76 48.8509 1513.44 48.8509ZM1513.46 46.0384C1514.06 46.0384 1514.56 45.8679 1514.97 45.527C1515.37 45.1804 1515.67 44.7089 1515.88 44.1123C1516.09 43.5157 1516.19 42.8367 1516.19 42.0753C1516.19 41.314 1516.09 40.635 1515.88 40.0384C1515.67 39.4418 1515.37 38.9702 1514.97 38.6236C1514.56 38.277 1514.06 38.1037 1513.46 38.1037C1512.85 38.1037 1512.34 38.277 1511.92 38.6236C1511.51 38.9702 1511.2 39.4418 1510.99 40.0384C1510.79 40.635 1510.69 41.314 1510.69 42.0753C1510.69 42.8367 1510.79 43.5157 1510.99 44.1123C1511.2 44.7089 1511.51 45.1804 1511.92 45.527C1512.34 45.8679 1512.85 46.0384 1513.46 46.0384ZM1525.32 41.027V48.5952H1521.69V35.5043H1525.15V37.814H1525.31C1525.6 37.0526 1526.08 36.4503 1526.76 36.0071C1527.44 35.5583 1528.27 35.3339 1529.24 35.3339C1530.15 35.3339 1530.94 35.5327 1531.62 35.9304C1532.3 36.3282 1532.82 36.8964 1533.2 37.635C1533.57 38.3679 1533.76 39.2429 1533.76 40.26V48.5952H1530.13V40.9077C1530.14 40.1066 1529.93 39.4816 1529.52 39.0327C1529.1 38.5782 1528.53 38.3509 1527.8 38.3509C1527.31 38.3509 1526.88 38.456 1526.51 38.6662C1526.14 38.8765 1525.85 39.1833 1525.64 39.5867C1525.43 39.9844 1525.33 40.4645 1525.32 41.027ZM1541.97 53.777C1540.79 53.777 1539.78 53.6151 1538.94 53.2912C1538.11 52.9731 1537.44 52.5384 1536.95 51.9873C1536.45 51.4361 1536.13 50.8168 1535.98 50.1293L1539.34 49.6776C1539.44 49.939 1539.61 50.1833 1539.83 50.4106C1540.05 50.6378 1540.34 50.8196 1540.71 50.956C1541.08 51.0981 1541.52 51.1691 1542.05 51.1691C1542.84 51.1691 1543.49 50.9759 1544 50.5895C1544.52 50.2089 1544.78 49.5696 1544.78 48.6719V46.277H1544.63C1544.47 46.6407 1544.23 46.9844 1543.91 47.3083C1543.59 47.6321 1543.18 47.8964 1542.68 48.1009C1542.18 48.3054 1541.59 48.4077 1540.89 48.4077C1539.91 48.4077 1539.02 48.1804 1538.21 47.7259C1537.41 47.2657 1536.77 46.564 1536.29 45.6208C1535.82 44.6719 1535.58 43.4731 1535.58 42.0242C1535.58 40.5412 1535.83 39.3026 1536.31 38.3083C1536.79 37.314 1537.43 36.5696 1538.23 36.0753C1539.04 35.581 1539.92 35.3339 1540.89 35.3339C1541.62 35.3339 1542.23 35.4589 1542.73 35.7089C1543.22 35.9532 1543.62 36.26 1543.92 36.6293C1544.23 36.9929 1544.46 37.3509 1544.63 37.7032H1544.76V35.5043H1548.37V48.7231C1548.37 49.8367 1548.1 50.7685 1547.55 51.5185C1547 52.2685 1546.25 52.831 1545.28 53.206C1544.32 53.5867 1543.22 53.777 1541.97 53.777ZM1542.04 45.6804C1542.63 45.6804 1543.12 45.5356 1543.53 45.2458C1543.94 44.9503 1544.25 44.5299 1544.46 43.9844C1544.69 43.4333 1544.8 42.7742 1544.8 42.0071C1544.8 41.2401 1544.69 40.5753 1544.47 40.0128C1544.26 39.4446 1543.94 39.0043 1543.54 38.6918C1543.13 38.3793 1542.63 38.2231 1542.04 38.2231C1541.45 38.2231 1540.94 38.385 1540.54 38.7089C1540.13 39.027 1539.82 39.4702 1539.61 40.0384C1539.4 40.6066 1539.29 41.2628 1539.29 42.0071C1539.29 42.7628 1539.4 43.4162 1539.61 43.9674C1539.82 44.5128 1540.13 44.9361 1540.54 45.2373C1540.94 45.5327 1541.45 45.6804 1542.04 45.6804ZM1554.34 31.1407V48.5952H1550.71V31.1407H1554.34ZM1558.93 53.5043C1558.47 53.5043 1558.04 53.4674 1557.64 53.3935C1557.24 53.3253 1556.91 53.2373 1556.65 53.1293L1557.47 50.4191C1557.89 50.5498 1558.28 50.6208 1558.62 50.6321C1558.96 50.6435 1559.26 50.564 1559.51 50.3935C1559.77 50.2231 1559.98 49.9333 1560.14 49.5242L1560.35 48.9702L1555.65 35.5043H1559.47L1562.18 45.1179H1562.32L1565.05 35.5043H1568.9L1563.81 50.01C1563.56 50.7145 1563.23 51.3282 1562.81 51.8509C1562.4 52.3793 1561.87 52.7856 1561.23 53.0696C1560.6 53.3594 1559.83 53.5043 1558.93 53.5043ZM1578.28 48.5952H1574.33L1580.35 31.1407H1585.11L1591.13 48.5952H1587.17L1582.8 35.1293H1582.66L1578.28 48.5952ZM1578.03 41.7344H1587.38V44.6151H1578.03V41.7344ZM1597.89 53.777C1596.72 53.777 1595.71 53.6151 1594.87 53.2912C1594.03 52.9731 1593.37 52.5384 1592.88 51.9873C1592.38 51.4361 1592.06 50.8168 1591.91 50.1293L1595.27 49.6776C1595.37 49.939 1595.53 50.1833 1595.76 50.4106C1595.98 50.6378 1596.27 50.8196 1596.63 50.956C1597 51.0981 1597.45 51.1691 1597.98 51.1691C1598.77 51.1691 1599.42 50.9759 1599.93 50.5895C1600.45 50.2089 1600.71 49.5696 1600.71 48.6719V46.277H1600.55C1600.39 46.6407 1600.16 46.9844 1599.84 47.3083C1599.52 47.6321 1599.11 47.8964 1598.61 48.1009C1598.11 48.3054 1597.51 48.4077 1596.82 48.4077C1595.84 48.4077 1594.94 48.1804 1594.14 47.7259C1593.34 47.2657 1592.7 46.564 1592.22 45.6208C1591.75 44.6719 1591.51 43.4731 1591.51 42.0242C1591.51 40.5412 1591.75 39.3026 1592.24 38.3083C1592.72 37.314 1593.36 36.5696 1594.16 36.0753C1594.97 35.581 1595.85 35.3339 1596.81 35.3339C1597.55 35.3339 1598.16 35.4589 1598.65 35.7089C1599.15 35.9532 1599.55 36.26 1599.85 36.6293C1600.15 36.9929 1600.39 37.3509 1600.55 37.7032H1600.69V35.5043H1604.3V48.7231C1604.3 49.8367 1604.02 50.7685 1603.48 51.5185C1602.93 52.2685 1602.18 52.831 1601.21 53.206C1600.25 53.5867 1599.14 53.777 1597.89 53.777ZM1597.97 45.6804C1598.56 45.6804 1599.05 45.5356 1599.45 45.2458C1599.86 44.9503 1600.18 44.5299 1600.39 43.9844C1600.61 43.4333 1600.72 42.7742 1600.72 42.0071C1600.72 41.2401 1600.62 40.5753 1600.4 40.0128C1600.18 39.4446 1599.87 39.0043 1599.46 38.6918C1599.05 38.3793 1598.56 38.2231 1597.97 38.2231C1597.38 38.2231 1596.87 38.385 1596.46 38.7089C1596.05 39.027 1595.74 39.4702 1595.53 40.0384C1595.32 40.6066 1595.22 41.2628 1595.22 42.0071C1595.22 42.7628 1595.32 43.4162 1595.53 43.9674C1595.75 44.5128 1596.06 44.9361 1596.46 45.2373C1596.87 45.5327 1597.38 45.6804 1597.97 45.6804ZM1606.63 48.5952V35.5043H1610.15V37.7884H1610.29C1610.53 36.9759 1610.93 36.3623 1611.49 35.9475C1612.05 35.527 1612.7 35.3168 1613.43 35.3168C1613.62 35.3168 1613.81 35.3282 1614.02 35.3509C1614.23 35.3736 1614.42 35.4049 1614.58 35.4446V38.6662C1614.41 38.6151 1614.17 38.5696 1613.87 38.5299C1613.57 38.4901 1613.29 38.4702 1613.04 38.4702C1612.51 38.4702 1612.03 38.5867 1611.61 38.8196C1611.2 39.0469 1610.87 39.3651 1610.62 39.7742C1610.38 40.1833 1610.26 40.6549 1610.26 41.189V48.5952H1606.63ZM1621.26 48.8509C1619.91 48.8509 1618.75 48.5782 1617.78 48.0327C1616.81 47.4816 1616.07 46.7032 1615.55 45.6975C1615.02 44.6861 1614.76 43.4901 1614.76 42.1094C1614.76 40.7628 1615.02 39.581 1615.55 38.564C1616.07 37.5469 1616.81 36.7543 1617.75 36.1861C1618.71 35.6179 1619.83 35.3339 1621.11 35.3339C1621.98 35.3339 1622.78 35.4731 1623.52 35.7515C1624.27 36.0242 1624.93 36.4361 1625.48 36.9873C1626.05 37.5384 1626.48 38.2316 1626.8 39.0668C1627.11 39.8964 1627.27 40.8679 1627.27 41.9816V42.9787H1616.21V40.7287H1623.85C1623.85 40.206 1623.73 39.7429 1623.51 39.3395C1623.28 38.9361 1622.96 38.6208 1622.56 38.3935C1622.16 38.1606 1621.7 38.0441 1621.17 38.0441C1620.62 38.0441 1620.13 38.1719 1619.71 38.4276C1619.29 38.6776 1618.96 39.0157 1618.72 39.4418C1618.48 39.8623 1618.36 40.331 1618.35 40.8481V42.9873C1618.35 43.635 1618.47 44.1946 1618.71 44.6662C1618.95 45.1378 1619.3 45.5015 1619.74 45.7571C1620.18 46.0128 1620.71 46.1407 1621.32 46.1407C1621.72 46.1407 1622.09 46.0839 1622.43 45.9702C1622.76 45.8566 1623.05 45.6861 1623.29 45.4589C1623.52 45.2316 1623.71 44.9532 1623.83 44.6236L1627.19 44.8452C1627.02 45.652 1626.67 46.3566 1626.14 46.9589C1625.62 47.5554 1624.94 48.0214 1624.11 48.3566C1623.29 48.6861 1622.34 48.8509 1621.26 48.8509ZM1635.05 48.8509C1633.7 48.8509 1632.54 48.5782 1631.57 48.0327C1630.61 47.4816 1629.86 46.7032 1629.34 45.6975C1628.82 44.6861 1628.55 43.4901 1628.55 42.1094C1628.55 40.7628 1628.82 39.581 1629.34 38.564C1629.86 37.5469 1630.6 36.7543 1631.55 36.1861C1632.5 35.6179 1633.62 35.3339 1634.9 35.3339C1635.77 35.3339 1636.57 35.4731 1637.32 35.7515C1638.07 36.0242 1638.72 36.4361 1639.28 36.9873C1639.84 37.5384 1640.28 38.2316 1640.59 39.0668C1640.9 39.8964 1641.06 40.8679 1641.06 41.9816V42.9787H1630V40.7287H1637.64C1637.64 40.206 1637.53 39.7429 1637.3 39.3395C1637.07 38.9361 1636.76 38.6208 1636.35 38.3935C1635.96 38.1606 1635.49 38.0441 1634.96 38.0441C1634.41 38.0441 1633.92 38.1719 1633.5 38.4276C1633.08 38.6776 1632.75 39.0157 1632.51 39.4418C1632.27 39.8623 1632.15 40.331 1632.14 40.8481V42.9873C1632.14 43.635 1632.26 44.1946 1632.5 44.6662C1632.75 45.1378 1633.09 45.5015 1633.53 45.7571C1633.98 46.0128 1634.5 46.1407 1635.11 46.1407C1635.51 46.1407 1635.88 46.0839 1636.22 45.9702C1636.55 45.8566 1636.84 45.6861 1637.08 45.4589C1637.32 45.2316 1637.5 44.9532 1637.62 44.6236L1640.98 44.8452C1640.81 45.652 1640.46 46.3566 1639.93 46.9589C1639.41 47.5554 1638.73 48.0214 1637.9 48.3566C1637.08 48.6861 1636.13 48.8509 1635.05 48.8509Z" fill="#382E33"/>
</svg>
