<svg width="2072" height="399" viewBox="0 0 2072 399" fill="none" xmlns="http://www.w3.org/2000/svg">
<path d="M1979.59 391.438C2011.53 391.438 2037.43 365.54 2037.43 333.593C2037.43 301.646 2011.53 275.748 1979.59 275.748C1947.64 275.748 1921.74 301.646 1921.74 333.593C1921.74 365.54 1947.64 391.438 1979.59 391.438Z" fill="#00E03A"/>
<path d="M1633.03 391.438C1664.98 391.438 1690.88 365.54 1690.88 333.593C1690.88 301.646 1664.98 275.748 1633.03 275.748C1601.09 275.748 1575.19 301.646 1575.19 333.593C1575.19 365.54 1601.09 391.438 1633.03 391.438Z" fill="#FC0635"/>
<path d="M1806.56 391.438C1838.51 391.438 1864.41 365.54 1864.41 333.593C1864.41 301.646 1838.51 275.748 1806.56 275.748C1774.61 275.748 1748.72 301.646 1748.72 333.593C1748.72 365.54 1774.61 391.438 1806.56 391.438Z" fill="#FFB71B"/>
<path d="M193.561 161.594C168.478 154.428 131.621 141.63 131.621 115.523C131.621 97.0947 147.49 78.6662 179.228 78.6662C189.978 78.6662 216.597 81.7376 239.121 102.726C243.728 106.821 250.894 106.821 255.502 102.214L289.287 66.3806C293.382 61.7735 293.382 54.6068 289.287 50.5116C273.93 35.6665 237.073 7 174.109 7C91.1812 7 44.0862 60.7497 44.0862 116.035C44.0862 163.13 71.217 196.404 109.098 210.737C166.431 232.749 224.276 238.891 224.276 274.725C224.276 304.927 196.633 319.26 166.431 319.26C140.324 319.26 110.633 307.998 88.1098 287.01C84.0146 282.915 76.3361 283.427 72.2408 287.522L38.4553 321.308C33.8482 325.915 33.8482 333.081 38.4553 337.688C71.217 368.914 111.657 391.95 171.55 391.95C265.74 391.95 311.811 338.2 311.811 275.236C311.811 200.499 257.037 180.023 193.561 161.594Z" fill="#1E2129"/>
<path d="M480.229 324.892C462.313 324.892 451.563 312.606 451.563 298.273V198.964H492.003C498.146 198.964 503.777 193.845 503.777 187.19V143.167C503.777 137.024 498.658 131.393 492.003 131.393H451.563V62.7981C451.563 56.6553 446.444 51.0244 439.789 51.0244H395.766C389.623 51.0244 383.992 56.1434 383.992 62.7981V100.167C383.992 120.643 371.194 131.905 357.373 131.905H343.552C337.409 131.905 331.778 137.024 331.778 143.679V187.702C331.778 193.845 336.897 199.476 343.552 199.476H376.313V301.344C376.313 361.749 403.956 391.951 459.241 391.951C478.694 392.463 492.003 388.879 500.705 386.32C505.312 384.784 508.896 380.177 508.896 375.57V335.13C508.896 327.963 502.241 322.332 495.074 323.868C490.979 323.868 485.86 324.892 480.229 324.892Z" fill="#1E2129"/>
<path d="M681.406 121.665C615.882 119.106 555.99 164.665 542.68 229.165C525.276 314.14 590.799 391.438 677.822 391.438C735.155 391.438 768.941 365.842 782.762 352.533C787.369 348.438 787.881 341.783 783.786 337.176L759.215 305.438C755.12 300.319 747.441 299.295 742.834 303.902C730.036 315.676 709.048 327.45 682.941 327.45C647.108 327.45 623.561 306.462 617.93 282.403H792.488C798.631 282.403 803.238 277.795 803.75 271.653C804.774 262.438 805.286 251.688 805.286 251.688C805.286 178.998 753.584 124.225 681.406 121.665ZM675.775 185.653C704.953 185.653 724.405 204.593 730.548 228.141H618.954C627.144 204.082 646.596 185.653 675.775 185.653Z" fill="#1E2129"/>
<path d="M865.689 386.321H917.391C923.534 386.321 929.165 381.202 929.165 374.548V28.502C929.165 22.3592 924.046 16.7283 917.391 16.7283H865.689C859.546 16.7283 853.916 21.8473 853.916 28.502V374.548C853.916 381.202 859.035 386.321 865.689 386.321Z" fill="#1E2129"/>
<path d="M1003.9 386.321H1055.6C1061.74 386.321 1067.38 381.202 1067.38 374.548V28.502C1067.38 22.3592 1062.26 16.7283 1055.6 16.7283H1003.9C997.757 16.7283 992.126 21.8473 992.126 28.502V374.548C992.126 381.202 997.245 386.321 1003.9 386.321Z" fill="#1E2129"/>
<path d="M1166.17 14.6797C1141.6 14.6797 1125.22 31.0605 1125.22 55.6318C1125.22 80.2031 1141.09 96.5839 1166.17 96.5839C1194.33 96.5839 1210.2 79.1793 1210.2 55.6318C1210.2 32.0843 1194.84 14.6797 1166.17 14.6797Z" fill="#1E2129"/>
<path d="M1142.12 386.32H1193.82C1199.96 386.32 1205.59 381.201 1205.59 374.547V138.048C1205.59 131.905 1200.47 126.274 1193.82 126.274H1142.12C1135.98 126.274 1130.34 131.393 1130.34 138.048V374.547C1130.34 381.201 1135.46 386.32 1142.12 386.32Z" fill="#1E2129"/>
<path d="M1395 324.89C1360.19 324.89 1329.47 295.199 1329.47 256.807C1329.47 217.902 1360.19 188.724 1395 188.724C1421.1 188.724 1438.51 203.569 1447.21 213.807C1451.82 218.926 1459.5 218.926 1464.1 214.319L1495.33 183.093C1499.42 178.998 1499.94 172.343 1496.35 167.736C1483.56 152.379 1451.31 121.665 1395.51 121.665C1317.19 121.665 1255.25 185.653 1255.25 256.807C1255.25 327.961 1317.7 391.949 1395.51 391.949C1450.28 391.949 1483.04 360.723 1496.35 345.878C1500.45 341.271 1499.94 334.616 1495.84 330.521L1467.17 299.807C1462.57 295.199 1454.89 294.688 1450.28 299.807C1440.04 309.533 1422.13 324.89 1395 324.89Z" fill="#1E2129"/>
</svg>
