<svg width="48" height="49" viewBox="0 0 48 49" fill="none" xmlns="http://www.w3.org/2000/svg">
<g clip-path="url(#clip0_502_497)">
<path d="M8.91803 8.91599C10.41 10.128 10.97 10.036 13.774 9.84799L40.204 8.26199C40.764 8.26199 40.298 7.70199 40.112 7.60999L35.72 4.43599C34.88 3.78399 33.758 3.03599 31.61 3.22199L6.02003 5.08999C5.08803 5.18199 4.90003 5.64999 5.27203 6.02199L8.91803 8.91599ZM10.504 15.076V42.884C10.504 44.378 11.25 44.938 12.932 44.844L41.978 43.164C43.66 43.072 43.848 42.044 43.848 40.83V13.208C43.848 11.996 43.382 11.342 42.352 11.434L11.998 13.208C10.878 13.302 10.504 13.862 10.504 15.074V15.076ZM39.178 16.566C39.364 17.406 39.178 18.246 38.338 18.342L36.938 18.622V39.15C35.722 39.804 34.602 40.178 33.668 40.178C32.172 40.178 31.798 39.71 30.678 38.312L21.524 23.94V37.844L24.42 38.5C24.42 38.5 24.42 40.18 22.084 40.18L15.64 40.552C15.454 40.18 15.64 39.246 16.294 39.06L17.974 38.594V20.208L15.644 20.02C15.456 19.18 15.924 17.968 17.23 17.874L24.142 17.408L33.67 31.966V19.086L31.24 18.808C31.054 17.78 31.8 17.034 32.734 16.942L39.178 16.566ZM3.87203 2.56999L30.492 0.609992C33.76 0.329992 34.602 0.515992 36.656 2.00999L45.154 7.98199C46.554 9.00799 47.022 9.28799 47.022 10.408V43.164C47.022 45.216 46.276 46.432 43.662 46.616L12.746 48.484C10.786 48.578 9.85003 48.298 8.82203 46.99L2.56403 38.87C1.44403 37.376 0.978027 36.258 0.978027 34.95V5.83399C0.978027 4.15599 1.72603 2.75399 3.87203 2.56999Z" fill="black"/>
</g>
<defs>
<clipPath id="clip0_502_497">
<rect width="48" height="48" fill="white" transform="translate(0 0.5)"/>
</clipPath>
</defs>
</svg>
