<?xml version="1.0" encoding="utf-8"?>
<!-- Generator: Adobe Illustrator 27.0.1, SVG Export Plug-In . SVG Version: 6.00 Build 0)  -->
<svg version="1.1" id="layer" xmlns="http://www.w3.org/2000/svg" xmlns:xlink="http://www.w3.org/1999/xlink" x="0px" y="0px"
	 viewBox="0 0 652 652" style="enable-background:new 0 0 652 652;" xml:space="preserve">
<style type="text/css">
	.st0{fill:#005F9E;}
</style>
<path class="st0" d="M584.9,169.1L402.6,63.9c0,0-29.1-17.1-75.2-17.1c-48,0-75.7,17.5-75.7,17.5L82.8,161.3l257.1,147.7v298.6
	l169.4-96.5c0,0,30.5-16.6,53.1-56.3c20.3-35.1,22.6-68.8,22.6-68.8L584.9,169.1L584.9,169.1z M309.8,218c0,0,37.8-6.9,69.7,11.5
	s50.8,29.1,50.8,29.1s0,25.4,0,63.7c0,30.5-25.8,62.3-25.8,62.3V272L309.8,218z M459.4,464.5l-54.9,31.4v-29.5l42.9-24.5
	c40.6-29.5,47.5-72.9,47.5-87.7V220.8l-116.8-67.4c0,0-18-11.5-49.8-11.5s-49.4,10.6-49.4,10.6L237.9,176L212,161.3l56.8-32.3
	c0,0,22.2-12.5,59.5-12.5c34.2,0,60.9,13.4,60.9,13.4l132,76.1v145.4C521.2,374,511.1,428.5,459.4,464.5z M69.9,258.2l180.5,103.4
	v30.9l-102.9-59.1l-64.6,36.5l167.1,96v29.5l-179.1-102c0.5,12,11.5,49.4,32.3,78c21.2,29.1,45.2,41.5,45.2,41.5L313.5,608V324.2
	L69.4,183.9L69.9,258.2z"/>
</svg>
